<?xml version="1.0" encoding="UTF-8" standalone="no"?>
<!-- Created with Inkscape (http://www.inkscape.org/) -->

<svg
   xmlns:dc="http://purl.org/dc/elements/1.1/"
   xmlns:cc="http://creativecommons.org/ns#"
   xmlns:rdf="http://www.w3.org/1999/02/22-rdf-syntax-ns#"
   xmlns:svg="http://www.w3.org/2000/svg"
   xmlns="http://www.w3.org/2000/svg"
   xmlns:sodipodi="http://sodipodi.sourceforge.net/DTD/sodipodi-0.dtd"
   xmlns:inkscape="http://www.inkscape.org/namespaces/inkscape"
   width="48"
   height="48"
   viewBox="0 0 12.7 12.7"
   version="1.1"
   id="svg8"
   inkscape:version="0.92.0 r"
   sodipodi:docname="units-mm.svg">
  <defs
     id="defs2" />
  <sodipodi:namedview
     id="base"
     pagecolor="#ffffff"
     bordercolor="#666666"
     borderopacity="1.0"
     inkscape:pageopacity="0.0"
     inkscape:pageshadow="2"
     inkscape:zoom="8.03"
     inkscape:cx="29.425013"
     inkscape:cy="33.873055"
     inkscape:document-units="mm"
     inkscape:current-layer="layer1"
     showgrid="false"
     units="px"
     inkscape:window-width="1920"
     inkscape:window-height="1016"
     inkscape:window-x="0"
     inkscape:window-y="27"
     inkscape:window-maximized="1" />
  <metadata
     id="metadata5">
    <rdf:RDF>
      <cc:Work
         rdf:about="">
        <dc:format>image/svg+xml</dc:format>
        <dc:type
           rdf:resource="http://purl.org/dc/dcmitype/StillImage" />
        <dc:title />
      </cc:Work>
    </rdf:RDF>
  </metadata>
  <g
     inkscape:label="Layer 1"
     inkscape:groupmode="layer"
     id="layer1"
     transform="translate(0,-284.3)">
    <g
       aria-label="mm"
       style="font-style:normal;font-variant:normal;font-weight:500;font-stretch:normal;font-size:8.46666622px;line-height:1.25;font-family:'Encode Sans Compressed';-inkscape-font-specification:'Encode Sans Compressed, Medium';font-variant-ligatures:normal;font-variant-caps:normal;font-variant-numeric:normal;font-feature-settings:normal;text-align:start;letter-spacing:0px;word-spacing:0px;writing-mode:lr-tb;text-anchor:start;fill:#000000;fill-opacity:1;stroke:none;stroke-width:0.26458332"
       id="text5038">
      <path
         d="m 0.34045285,288.40633 h 0.64346663 l 0.0508,0.49107 h 0.0254 q 0.4402666,-0.3048 0.7789333,-0.44027 0.3386666,-0.13546 0.6603999,-0.13546 0.3640667,0 0.5757333,0.14393 0.2201334,0.13547 0.3217334,0.44027 h 0.042333 q 0.4148666,-0.31327 0.7535333,-0.44874 0.3471333,-0.13546 0.6857999,-0.13546 0.508,0 0.7450667,0.28786 0.2370666,0.28787 0.2370666,0.9144 v 3.4544 H 5.0902526 v -3.2258 q 0,-0.38946 -0.127,-0.5588 -0.127,-0.16933 -0.4064,-0.16933 -0.4741333,0 -1.0752666,0.4064 v 3.54753 H 2.7195861 v -3.2258 q 0,-0.38946 -0.1354667,-0.5588 -0.127,-0.16933 -0.4064,-0.16933 -0.4995333,0 -1.0667999,0.4064 v 3.54753 H 0.34045285 Z"
         style="font-style:normal;font-variant:normal;font-weight:500;font-stretch:normal;font-size:8.46666622px;font-family:'Encode Sans Compressed';-inkscape-font-specification:'Encode Sans Compressed, Medium';font-variant-ligatures:normal;font-variant-caps:normal;font-variant-numeric:normal;font-feature-settings:normal;text-align:start;writing-mode:lr-tb;text-anchor:start;stroke-width:0.26458332"
         id="path8407" />
      <path
         d="m 6.8392808,288.40633 h 0.6434666 l 0.0508,0.49107 h 0.0254 q 0.4402667,-0.3048 0.7789333,-0.44027 0.3386667,-0.13546 0.6604,-0.13546 0.3640666,0 0.5757333,0.14393 0.2201333,0.13547 0.3217333,0.44027 h 0.042333 q 0.4148664,-0.31327 0.7535334,-0.44874 0.347133,-0.13546 0.6858,-0.13546 0.508,0 0.745067,0.28786 0.237066,0.28787 0.237066,0.9144 v 3.4544 h -0.770466 v -3.2258 q 0,-0.38946 -0.127,-0.5588 -0.127,-0.16933 -0.4064,-0.16933 -0.474134,0 -1.0752671,0.4064 v 3.54753 H 9.218414 v -3.2258 q 0,-0.38946 -0.1354667,-0.5588 -0.127,-0.16933 -0.4063999,-0.16933 -0.4995334,0 -1.0668,0.4064 v 3.54753 H 6.8392808 Z"
         style="font-style:normal;font-variant:normal;font-weight:500;font-stretch:normal;font-size:8.46666622px;font-family:'Encode Sans Compressed';-inkscape-font-specification:'Encode Sans Compressed, Medium';font-variant-ligatures:normal;font-variant-caps:normal;font-variant-numeric:normal;font-feature-settings:normal;text-align:start;writing-mode:lr-tb;text-anchor:start;stroke-width:0.26458332"
         id="path8409" />
    </g>
  </g>
</svg>
