<?xml version="1.0" encoding="UTF-8" standalone="no"?>
<!-- Created with Inkscape (http://www.inkscape.org/) -->

<svg
   xmlns:dc="http://purl.org/dc/elements/1.1/"
   xmlns:cc="http://creativecommons.org/ns#"
   xmlns:rdf="http://www.w3.org/1999/02/22-rdf-syntax-ns#"
   xmlns:svg="http://www.w3.org/2000/svg"
   xmlns="http://www.w3.org/2000/svg"
   xmlns:sodipodi="http://sodipodi.sourceforge.net/DTD/sodipodi-0.dtd"
   xmlns:inkscape="http://www.inkscape.org/namespaces/inkscape"
   width="48"
   height="48"
   viewBox="0 0 12.7 12.7"
   version="1.1"
   id="svg8"
   inkscape:version="0.92.0 r"
   sodipodi:docname="units-ang.svg">
  <defs
     id="defs2" />
  <sodipodi:namedview
     id="base"
     pagecolor="#ffffff"
     bordercolor="#666666"
     borderopacity="1.0"
     inkscape:pageopacity="0.0"
     inkscape:pageshadow="2"
     inkscape:zoom="11.4375"
     inkscape:cx="-10.098361"
     inkscape:cy="24"
     inkscape:document-units="mm"
     inkscape:current-layer="layer1"
     showgrid="false"
     units="px"
     inkscape:window-width="1920"
     inkscape:window-height="1016"
     inkscape:window-x="0"
     inkscape:window-y="27"
     inkscape:window-maximized="1" />
  <metadata
     id="metadata5">
    <rdf:RDF>
      <cc:Work
         rdf:about="">
        <dc:format>image/svg+xml</dc:format>
        <dc:type
           rdf:resource="http://purl.org/dc/dcmitype/StillImage" />
        <dc:title />
      </cc:Work>
    </rdf:RDF>
  </metadata>
  <g
     inkscape:label="Layer 1"
     inkscape:groupmode="layer"
     id="layer1"
     transform="translate(0,-284.3)">
    <g
       aria-label="Å"
       style="font-style:normal;font-variant:normal;font-weight:500;font-stretch:normal;font-size:9.87777805px;line-height:1.25;font-family:'Encode Sans Compressed';-inkscape-font-specification:'Encode Sans Compressed, Medium';font-variant-ligatures:normal;font-variant-caps:normal;font-variant-numeric:normal;font-feature-settings:normal;text-align:start;letter-spacing:0px;word-spacing:0px;writing-mode:lr-tb;text-anchor:start;fill:#000000;fill-opacity:1;stroke:none;stroke-width:0.26458332"
       id="text5038">
      <path
         d="m 3.4261777,295.36664 2.0644557,-7.25029 h 0.2173111 q -0.2568223,-0.11854 -0.4049889,-0.36548 -0.1382889,-0.25682 -0.1382889,-0.57291 0,-0.4445 0.2667,-0.74083 0.2667,-0.30622 0.7408333,-0.30622 0.4741334,0 0.7408334,0.30622 0.2667,0.29633 0.2667,0.74083 0,0.31609 -0.1481667,0.57291 -0.1382889,0.24694 -0.3951111,0.36548 h 0.2173111 l 2.0743334,7.25029 v 0.0593 h -0.889 L 7.4069223,293.2923 H 4.9276 l -0.6223,2.1336 H 3.4261777 Z m 3.7930668,-2.8448 -0.7210778,-2.52871 -0.2864555,-1.07668 h -0.079022 l -0.2864555,1.07668 -0.7309556,2.52871 z M 6.1722,287.7805 q 0.2765778,0 0.4049889,-0.15804 0.1382889,-0.16792 0.1382889,-0.4445 0,-0.28646 -0.1284111,-0.4445 -0.1284111,-0.16792 -0.4148667,-0.16792 -0.2864555,0 -0.4148666,0.16792 -0.1284111,0.15804 -0.1284111,0.4445 0,0.27658 0.1284111,0.4445 0.1284111,0.15804 0.4148666,0.15804 z"
         style="font-style:normal;font-variant:normal;font-weight:500;font-stretch:normal;font-size:9.87777805px;font-family:'Encode Sans Compressed';-inkscape-font-specification:'Encode Sans Compressed, Medium';font-variant-ligatures:normal;font-variant-caps:normal;font-variant-numeric:normal;font-feature-settings:normal;text-align:start;writing-mode:lr-tb;text-anchor:start;stroke-width:0.26458332"
         id="path8401" />
    </g>
  </g>
</svg>
