<?xml version="1.0" encoding="UTF-8" standalone="no"?>
<svg
   xmlns:dc="http://purl.org/dc/elements/1.1/"
   xmlns:cc="http://creativecommons.org/ns#"
   xmlns:rdf="http://www.w3.org/1999/02/22-rdf-syntax-ns#"
   xmlns:svg="http://www.w3.org/2000/svg"
   xmlns="http://www.w3.org/2000/svg"
   xmlns:sodipodi="http://sodipodi.sourceforge.net/DTD/sodipodi-0.dtd"
   xmlns:inkscape="http://www.inkscape.org/namespaces/inkscape"
   width="16"
   height="16"
   version="1.1"
   id="svg8"
   sodipodi:docname="ai-symbolic.svg"
   inkscape:version="1.0rc1 (09960d6f05, 2020-04-09)">
  <metadata
     id="metadata14">
    <rdf:RDF>
      <cc:Work
         rdf:about="">
        <dc:format>image/svg+xml</dc:format>
        <dc:type
           rdf:resource="http://purl.org/dc/dcmitype/StillImage" />
      </cc:Work>
    </rdf:RDF>
  </metadata>
  <defs
     id="defs12" />
  <sodipodi:namedview
     inkscape:snap-object-midpoints="true"
     inkscape:snap-bbox-midpoints="true"
     inkscape:snap-bbox="true"
     inkscape:snap-midpoints="true"
     inkscape:snap-global="true"
     inkscape:snap-others="true"
     inkscape:snap-nodes="true"
     inkscape:document-rotation="0"
     pagecolor="#ffffff"
     bordercolor="#666666"
     borderopacity="1"
     objecttolerance="10"
     gridtolerance="10"
     guidetolerance="10"
     inkscape:pageopacity="0"
     inkscape:pageshadow="2"
     inkscape:window-width="1745"
     inkscape:window-height="834"
     id="namedview10"
     showgrid="false"
     inkscape:zoom="20.08"
     inkscape:cx="8"
     inkscape:cy="8"
     inkscape:window-x="84"
     inkscape:window-y="182"
     inkscape:window-maximized="0"
     inkscape:current-layer="svg8" />
  <g
     id="g1034">
    <path
       id="path1012"
       style="color:#000000;font-style:normal;font-variant:normal;font-weight:normal;font-stretch:normal;font-size:medium;line-height:normal;font-family:sans-serif;font-variant-ligatures:normal;font-variant-position:normal;font-variant-caps:normal;font-variant-numeric:normal;font-variant-alternates:normal;font-variant-east-asian:normal;font-feature-settings:normal;font-variation-settings:normal;text-indent:0;text-align:start;text-decoration:none;text-decoration-line:none;text-decoration-style:solid;text-decoration-color:#000000;letter-spacing:normal;word-spacing:normal;text-transform:none;writing-mode:lr-tb;direction:ltr;text-orientation:mixed;dominant-baseline:auto;baseline-shift:baseline;text-anchor:start;white-space:normal;shape-padding:0;shape-margin:0;inline-size:0;clip-rule:nonzero;display:inline;overflow:visible;visibility:visible;isolation:auto;mix-blend-mode:normal;color-interpolation:sRGB;color-interpolation-filters:linearRGB;solid-color:#000000;solid-opacity:1;vector-effect:none;fill-opacity:1;fill-rule:evenodd;stroke:none;stroke-width:1px;stroke-linecap:round;stroke-linejoin:round;stroke-miterlimit:4;stroke-dasharray:none;stroke-dashoffset:0;stroke-opacity:1;color-rendering:auto;image-rendering:auto;shape-rendering:auto;text-rendering:auto;enable-background:accumulate;stop-color:#000000;stop-opacity:1;opacity:0.6"
       d="M 3.3828125 2.5351562 A 0.5 0.5 0 0 0 3.3535156 2.5371094 A 0.5 0.5 0 0 0 3.3398438 2.5390625 A 0.5 0.5 0 0 0 3.3242188 2.5410156 A 0.5 0.5 0 0 0 3.2949219 2.546875 A 0.5 0.5 0 0 0 3.2402344 2.5605469 A 0.5 0.5 0 0 0 3.2089844 2.5722656 A 0.5 0.5 0 0 0 3.2011719 2.5761719 A 0.5 0.5 0 0 0 3.1191406 2.6210938 A 0.5 0.5 0 0 0 3.0742188 2.65625 A 0.5 0.5 0 0 0 3.0722656 2.6582031 A 0.5 0.5 0 0 0 3.0449219 2.6835938 A 0.5 0.5 0 0 0 2.9550781 2.8066406 A 0.5 0.5 0 0 0 2.9492188 2.8203125 A 0.5 0.5 0 0 0 2.9863281 3.3164062 L 5.2324219 6.625 L 3.1738281 7.6757812 A 0.50005 0.50005 0 0 0 3.1875 8.5742188 L 5.2324219 9.5410156 L 2.984375 12.933594 A 0.50005 0.50005 0 0 0 3.6328125 13.652344 L 8.6933594 10.986328 A 0.5 0.5 0 0 0 8.7148438 10.974609 L 8.7304688 10.966797 L 13.796875 8.4648438 A 0.5 0.5 0 0 0 13.806641 8.4589844 A 0.5 0.5 0 0 0 13.816406 8.453125 A 0.5 0.5 0 0 0 13.847656 8.4355469 A 0.5 0.5 0 0 0 13.894531 8.4003906 A 0.5 0.5 0 0 0 13.896484 8.4003906 A 0.5 0.5 0 0 0 13.90625 8.3925781 A 0.5 0.5 0 0 0 13.939453 8.359375 A 0.5 0.5 0 0 0 13.947266 8.3496094 A 0.5 0.5 0 0 0 13.976562 8.3144531 A 0.5 0.5 0 0 0 13.984375 8.3046875 A 0.5 0.5 0 0 0 14.009766 8.2636719 A 0.5 0.5 0 0 0 14.015625 8.2539062 A 0.5 0.5 0 0 0 14.021484 8.2421875 A 0.5 0.5 0 0 0 14.023438 8.2363281 A 0.5 0.5 0 0 0 14.044922 8.1875 A 0.5 0.5 0 0 0 14.058594 8.140625 A 0.5 0.5 0 0 0 14.0625 8.1308594 A 0.5 0.5 0 0 0 14.068359 8.0957031 A 0.5 0.5 0 0 0 14.074219 8.0371094 A 0.5 0.5 0 0 0 14.074219 7.9941406 A 0.5 0.5 0 0 0 14.070312 7.953125 A 0.5 0.5 0 0 0 14.0625 7.9042969 A 0.5 0.5 0 0 0 14.060547 7.8945312 A 0.5 0.5 0 0 0 14.050781 7.8613281 A 0.5 0.5 0 0 0 14.048828 7.8554688 A 0.5 0.5 0 0 0 14.035156 7.8222656 A 0.5 0.5 0 0 0 14.029297 7.8066406 A 0.5 0.5 0 0 0 14.023438 7.7949219 A 0.5 0.5 0 0 0 14.017578 7.7851562 A 0.5 0.5 0 0 0 14.011719 7.7753906 A 0.5 0.5 0 0 0 13.994141 7.7441406 A 0.5 0.5 0 0 0 13.958984 7.6972656 A 0.5 0.5 0 0 0 13.958984 7.6953125 A 0.5 0.5 0 0 0 13.951172 7.6855469 A 0.5 0.5 0 0 0 13.917969 7.6523438 A 0.5 0.5 0 0 0 13.908203 7.6445312 A 0.5 0.5 0 0 0 13.873047 7.6152344 A 0.5 0.5 0 0 0 13.863281 7.6074219 A 0.5 0.5 0 0 0 13.822266 7.5820312 A 0.5 0.5 0 0 0 13.8125 7.5761719 A 0.5 0.5 0 0 0 13.800781 7.5703125 L 13.769531 7.5546875 L 8.7128906 4.9960938 A 0.50005 0.50005 0 0 0 8.7011719 4.9902344 L 3.6152344 2.5820312 A 0.5 0.5 0 0 0 3.5859375 2.5703125 A 0.5 0.5 0 0 0 3.5839844 2.5703125 A 0.5 0.5 0 0 0 3.4882812 2.5429688 A 0.5 0.5 0 0 0 3.4433594 2.5371094 A 0.5 0.5 0 0 0 3.3828125 2.5351562 z M 4.84375 4.2695312 L 7.4394531 5.4980469 L 6.1308594 6.1660156 L 4.84375 4.2695312 z M 8.703125 6.1113281 L 12.457031 8.0117188 L 8.65625 9.8867188 L 7.4140625 8.0566406 L 8.703125 6.1113281 z M 7.0253906 6.8320312 L 6.8066406 7.1621094 L 6.6972656 7 L 7.0253906 6.8320312 z M 5.7988281 7.4589844 L 6.2089844 8.0644531 L 5.7890625 8.6972656 L 4.5332031 8.1035156 L 5.7988281 7.4589844 z M 6.8164062 8.9570312 L 7.0429688 9.2910156 L 6.703125 9.1289062 L 6.8164062 8.9570312 z M 6.1445312 9.9726562 L 7.3691406 10.552734 L 4.8945312 11.857422 L 6.1445312 9.9726562 z " />
    <path
       id="path839"
       style="fill-rule:evenodd;stroke-width:13.3334;stroke-linejoin:round;stroke-miterlimit:10;paint-order:stroke markers fill;opacity:1"
       d="m 4.9005027,3.0346198 a 1.5,1.5 0 0 1 -1.5,1.5 1.5,1.5 0 0 1 -1.5,-1.5 1.5,1.5 0 0 1 1.5,-1.5 1.5,1.5 0 0 1 1.5,1.5 z" />
    <path
       id="path839-8"
       style="fill-rule:evenodd;stroke-width:13.3334;stroke-linejoin:round;stroke-miterlimit:10;paint-order:stroke markers fill;opacity:1"
       d="m 4.9005027,8.121851 a 1.5,1.5 0 0 1 -1.5,1.5 1.5,1.5 0 0 1 -1.5,-1.5 1.5,1.5 0 0 1 1.5,-1.5 1.5,1.5 0 0 1 1.5,1.5" />
    <path
       id="path839-1"
       style="fill-rule:evenodd;stroke-width:13.3334;stroke-linejoin:round;stroke-miterlimit:10;paint-order:stroke markers fill;opacity:1"
       d="m 4.9005027,13.209082 a 1.5,1.5 0 0 1 -1.5,1.5 1.5,1.5 0 0 1 -1.5,-1.5 1.5,1.5 0 0 1 1.5,-1.5 1.5,1.5 0 0 1 1.5,1.5" />
    <path
       id="path839-0"
       style="fill-rule:evenodd;stroke-width:13.3334;stroke-linejoin:round;stroke-miterlimit:10;paint-order:stroke markers fill;opacity:1"
       d="m 9.9877329,5.4415469 a 1.5,1.5 0 0 1 -1.5,1.5 1.5,1.5 0 0 1 -1.5,-1.5 1.5,1.5 0 0 1 1.5,-1.5 1.5,1.5 0 0 1 1.5,1.5" />
    <path
       id="path839-3"
       style="fill-rule:evenodd;stroke-width:13.3334;stroke-linejoin:round;stroke-miterlimit:10;paint-order:stroke markers fill;opacity:1"
       d="m 9.9877329,10.528777 a 1.5,1.5 0 0 1 -1.5,1.5 1.5,1.5 0 0 1 -1.5,-1.5 1.5,1.5 0 0 1 1.5,-1.4999999 1.5,1.5 0 0 1 1.5,1.4999999" />
    <path
       id="path839-04"
       style="fill-rule:evenodd;stroke-width:13.3334;stroke-linejoin:round;stroke-miterlimit:10;paint-order:stroke markers fill;opacity:1;fill:#4682b4"
       d="m 15.074965,8.0160618 a 1.5,1.5 0 0 1 -1.5,1.5 1.5,1.5 0 0 1 -1.5,-1.5 1.5,1.5 0 0 1 1.5,-1.5 1.5,1.5 0 0 1 1.5,1.5" />
  </g>
</svg>
