<?xml version="1.0" encoding="UTF-8" standalone="no"?>
<svg
   height="16px"
   viewBox="0 0 16 16"
   width="16px"
   version="1.1"
   id="svg8"
   sodipodi:docname="auto-scale-symbolic.svg"
   inkscape:version="1.2.1 (9c6d41e410, 2022-07-14)"
   xmlns:inkscape="http://www.inkscape.org/namespaces/inkscape"
   xmlns:sodipodi="http://sodipodi.sourceforge.net/DTD/sodipodi-0.dtd"
   xmlns="http://www.w3.org/2000/svg"
   xmlns:svg="http://www.w3.org/2000/svg">
  <defs
     id="defs12" />
  <sodipodi:namedview
     id="namedview10"
     pagecolor="#ffffff"
     bordercolor="#000000"
     borderopacity="0.25"
     inkscape:showpageshadow="2"
     inkscape:pageopacity="0.0"
     inkscape:pagecheckerboard="0"
     inkscape:deskcolor="#d1d1d1"
     showgrid="false"
     inkscape:zoom="25.26"
     inkscape:cx="8.2937451"
     inkscape:cy="7.9968329"
     inkscape:window-width="1920"
     inkscape:window-height="1011"
     inkscape:window-x="0"
     inkscape:window-y="0"
     inkscape:window-maximized="1"
     inkscape:current-layer="svg8" />
  <g
     id="g977">
    <path
       d="m 15.999953,3.9999529 c 0,-1.332031 -0.8125,-2.273438 -1.550781,-2.644531 -0.742188,-0.371094 -1.449219,-0.355469 -1.449219,-0.355469 H 9.9999529 v 2 h 3.0000001 c 0.554688,0 1,0.445312 1,1 v 8.0000001 c 0,0.554688 -0.445312,1 -1,1 H 9.9999529 v 2 h 3.0000001 c 1.332031,0 2.273438,-0.8125 2.644531,-1.550781 0.371094,-0.742188 0.355469,-1.449219 0.355469,-1.449219 z m -7.0000001,-4 h -2 V 15.999953 h 2 z m -3,1 h -3 c 0,0 -0.707031,-0.015625 -1.449219,0.355469 -0.738281,0.371093 -1.550781,1.3125 -1.550781,2.644531 v 8.0000001 c 0,1.332031 0.8125,2.273438 1.550781,2.644531 0.742188,0.371094 1.449219,0.355469 1.449219,0.355469 h 3 v -2 h -3 c -0.554688,0 -1,-0.445312 -1,-1 V 3.9999529 c 0,-0.554688 0.445312,-1 1,-1 h 3 z"
       id="path2"
       style="fill:#2e3434"
       sodipodi:nodetypes="sccccssssccsccsccccccccssccccsssscc" />
    <path
       d="m 9.9999529,3.9999529 v 8.0000001 l 3.0122941,-0.0083 -0.01229,-7.9916721 z"
       fill-opacity="0.34902"
       id="path4"
       sodipodi:nodetypes="ccccc"
       style="fill:#2e3434" />
    <path
       d="m 2.9539577,3.9999528 v 8.0000002 l 3.0122941,-0.0083 -0.01229,-7.9916722 z"
       fill-opacity="0.34902"
       id="path4-3"
       sodipodi:nodetypes="ccccc"
       style="fill:#2e3434;fill-opacity:1" />
  </g>
</svg>
