<?xml version="1.0" encoding="UTF-8" standalone="no"?>
<svg
   xmlns:dc="http://purl.org/dc/elements/1.1/"
   xmlns:cc="http://creativecommons.org/ns#"
   xmlns:rdf="http://www.w3.org/1999/02/22-rdf-syntax-ns#"
   xmlns:svg="http://www.w3.org/2000/svg"
   xmlns="http://www.w3.org/2000/svg"
   xmlns:sodipodi="http://sodipodi.sourceforge.net/DTD/sodipodi-0.dtd"
   xmlns:inkscape="http://www.inkscape.org/namespaces/inkscape"
   width="16"
   height="16"
   version="1.1"
   id="svg2854"
   sodipodi:docname="diffraction-symbolic.svg"
   inkscape:version="1.0 (4035a4fb49, 2020-05-01)">
  <metadata
     id="metadata2860">
    <rdf:RDF>
      <cc:Work
         rdf:about="">
        <dc:format>image/svg+xml</dc:format>
        <dc:type
           rdf:resource="http://purl.org/dc/dcmitype/StillImage" />
        <dc:title />
      </cc:Work>
    </rdf:RDF>
  </metadata>
  <defs
     id="defs2858" />
  <sodipodi:namedview
     inkscape:lockguides="false"
     inkscape:document-rotation="0"
     pagecolor="#ffffff"
     bordercolor="#666666"
     borderopacity="1"
     objecttolerance="10"
     gridtolerance="10"
     guidetolerance="10"
     inkscape:pageopacity="0"
     inkscape:pageshadow="2"
     inkscape:window-width="1392"
     inkscape:window-height="752"
     id="namedview2856"
     showgrid="false"
     inkscape:zoom="35.0625"
     inkscape:cx="8"
     inkscape:cy="8"
     inkscape:window-x="335"
     inkscape:window-y="131"
     inkscape:window-maximized="0"
     inkscape:current-layer="svg2854" />
  <path
     d="m 9.4141465,8.0576839 a 1.2500001,1.25 0 0 1 -1.2500001,1.25 1.2500001,1.25 0 0 1 -1.2500001,-1.25 1.2500001,1.25 0 0 1 1.2500001,-1.25 1.2500001,1.25 0 0 1 1.2500001,1.25"
     style="color:#000000;fill:#bebebe;fill-opacity:1;fill-rule:nonzero;stroke:none;stroke-width:0.266667;stroke-linecap:round;stroke-linejoin:round;stroke-miterlimit:7;paint-order:stroke markers fill"
     id="path1011" />
  <path
     d="m 13.017172,8.0576839 a 0.90000004,0.90000004 0 0 1 -0.9,0.9000001 0.90000004,0.90000004 0 0 1 -0.9,-0.9000001 0.90000004,0.90000004 0 0 1 0.9,-0.9 0.90000004,0.90000004 0 0 1 0.9,0.9"
     style="color:#000000;fill:#bebebe;fill-opacity:1;fill-rule:nonzero;stroke:none;stroke-width:0.266667;stroke-linecap:round;stroke-linejoin:round;stroke-miterlimit:7;paint-order:stroke markers fill"
     id="path1011-1" />
  <path
     d="m 10.895829,4.505311 a 0.90000004,0.90000004 0 0 1 -0.9000004,0.9 0.90000004,0.90000004 0 0 1 -0.9,-0.9 0.90000004,0.90000004 0 0 1 0.9,-0.9 0.90000004,0.90000004 0 0 1 0.9000004,0.9"
     style="color:#000000;fill:#bebebe;fill-opacity:1;fill-rule:nonzero;stroke:none;stroke-width:0.266667;stroke-linecap:round;stroke-linejoin:round;stroke-miterlimit:7;paint-order:stroke markers fill"
     id="path1011-7" />
  <path
     d="m 6.9625196,4.505311 a 0.90000004,0.90000004 0 0 1 -0.9,0.9 0.90000004,0.90000004 0 0 1 -0.9000001,-0.9 0.90000004,0.90000004 0 0 1 0.9000001,-0.9 0.90000004,0.90000004 0 0 1 0.9,0.9"
     style="color:#000000;fill:#bebebe;fill-opacity:1;fill-rule:nonzero;stroke:none;stroke-width:0.266667;stroke-linecap:round;stroke-linejoin:round;stroke-miterlimit:7;paint-order:stroke markers fill"
     id="path1011-7-5" />
  <path
     d="m 5.0517349,8.0576839 a 0.90000004,0.90000004 0 0 1 -0.9000001,0.9000001 0.90000004,0.90000004 0 0 1 -0.9,-0.9000001 0.90000004,0.90000004 0 0 1 0.9,-0.9 0.90000004,0.90000004 0 0 1 0.9000001,0.9"
     style="color:#000000;fill:#bebebe;fill-opacity:1;fill-rule:nonzero;stroke:none;stroke-width:0.266667;stroke-linecap:round;stroke-linejoin:round;stroke-miterlimit:7;paint-order:stroke markers fill"
     id="path1011-7-9" />
  <path
     d="m 6.9292351,11.586946 a 0.86671555,0.90000004 0 0 1 -0.8667155,0.9 0.86671555,0.90000004 0 0 1 -0.8667156,-0.9 0.86671555,0.90000004 0 0 1 0.8667156,-0.900001 0.86671555,0.90000004 0 0 1 0.8667155,0.900001"
     style="color:#000000;fill:#bebebe;fill-opacity:1;fill-rule:nonzero;stroke:none;stroke-width:0.266667;stroke-linecap:round;stroke-linejoin:round;stroke-miterlimit:7;paint-order:stroke markers fill"
     id="path1011-7-6" />
  <path
     d="m 10.895829,11.586946 a 0.90000004,0.90000004 0 0 1 -0.9000004,0.9 0.90000004,0.90000004 0 0 1 -0.9,-0.9 0.90000004,0.90000004 0 0 1 0.9,-0.900001 0.90000004,0.90000004 0 0 1 0.9000004,0.900001"
     style="color:#000000;fill:#bebebe;fill-opacity:1;fill-rule:nonzero;stroke:none;stroke-width:0.266667;stroke-linecap:round;stroke-linejoin:round;stroke-miterlimit:7;paint-order:stroke markers fill"
     id="path1011-7-2" />
  <path
     d="m 14.334176,4.505311 a 0.64999986,0.64999998 0 0 1 -0.65,0.65 0.64999986,0.64999998 0 0 1 -0.649999,-0.65 0.64999986,0.64999998 0 0 1 0.649999,-0.65 0.64999986,0.64999998 0 0 1 0.65,0.65"
     style="color:#000000;fill:#bebebe;fill-opacity:1;fill-rule:nonzero;stroke:none;stroke-width:0.266668;stroke-linecap:round;stroke-linejoin:round;stroke-miterlimit:7;paint-order:stroke markers fill"
     id="path1011-7-1" />
  <path
     d="m 14.334176,11.586946 a 0.64999986,0.64999998 0 0 1 -0.65,0.65 0.64999986,0.64999998 0 0 1 -0.649999,-0.65 0.64999986,0.64999998 0 0 1 0.649999,-0.65 0.64999986,0.64999998 0 0 1 0.65,0.65"
     style="color:#000000;fill:#bebebe;fill-opacity:1;fill-rule:nonzero;stroke:none;stroke-width:0.266668;stroke-linecap:round;stroke-linejoin:round;stroke-miterlimit:7;paint-order:stroke markers fill"
     id="path1011-7-1-7" />
  <path
     d="m 3.0982104,11.586946 a 0.64999992,0.64999998 0 0 1 -0.6499999,0.65 0.64999992,0.64999998 0 0 1 -0.6499999,-0.65 0.64999992,0.64999998 0 0 1 0.6499999,-0.65 0.64999992,0.64999998 0 0 1 0.6499999,0.65"
     style="color:#000000;fill:#bebebe;fill-opacity:1;fill-rule:nonzero;stroke:none;stroke-width:0.266668;stroke-linecap:round;stroke-linejoin:round;stroke-miterlimit:7;paint-order:stroke markers fill"
     id="path1011-7-1-5" />
  <path
     d="m 3.0982104,4.505311 a 0.64999992,0.64999998 0 0 1 -0.6499999,0.65 0.64999992,0.64999998 0 0 1 -0.6499999,-0.65 0.64999992,0.64999998 0 0 1 0.6499999,-0.65 0.64999992,0.64999998 0 0 1 0.6499999,0.65"
     style="color:#000000;fill:#bebebe;fill-opacity:1;fill-rule:nonzero;stroke:none;stroke-width:0.266668;stroke-linecap:round;stroke-linejoin:round;stroke-miterlimit:7;paint-order:stroke markers fill"
     id="path1011-7-1-74" />
  <path
     d="m 8.8641464,1.6726036 a 0.69999993,0.69999999 0 0 1 -0.7,0.7 0.69999993,0.69999999 0 0 1 -0.6999999,-0.7 0.69999993,0.69999999 0 0 1 0.6999999,-0.69999998 0.69999993,0.69999999 0 0 1 0.7,0.69999998"
     style="color:#000000;fill:#bebebe;fill-opacity:1;fill-rule:nonzero;stroke:none;stroke-width:0.266667;stroke-linecap:round;stroke-linejoin:round;stroke-miterlimit:7;paint-order:stroke markers fill"
     id="path1011-7-1-1" />
  <path
     d="m 8.8641464,14.613698 a 0.69999999,0.69999999 0 0 1 -0.7,0.7 0.69999999,0.69999999 0 0 1 -0.7,-0.7 0.69999999,0.69999999 0 0 1 0.7,-0.7 0.69999999,0.69999999 0 0 1 0.7,0.7"
     style="color:#000000;fill:#bebebe;fill-opacity:1;fill-rule:nonzero;stroke:none;stroke-width:0.266667;stroke-linecap:round;stroke-linejoin:round;stroke-miterlimit:7;paint-order:stroke markers fill"
     id="path1011-7-1-8" />
  <path
     d="m 12.567172,14.613698 a 0.44999999,0.44999999 0 0 1 -0.45,0.45 0.44999999,0.44999999 0 0 1 -0.45,-0.45 0.44999999,0.44999999 0 0 1 0.45,-0.45 0.44999999,0.44999999 0 0 1 0.45,0.45"
     style="color:#000000;fill:#bebebe;fill-opacity:1;fill-rule:nonzero;stroke:none;stroke-width:0.266666;stroke-linecap:round;stroke-linejoin:round;stroke-miterlimit:7;paint-order:stroke markers fill"
     id="path1011-7-1-59" />
  <path
     d="m 12.567172,1.6726036 a 0.44999999,0.44999999 0 0 1 -0.45,0.45 0.44999999,0.44999999 0 0 1 -0.45,-0.45 0.44999999,0.44999999 0 0 1 0.45,-0.45 0.44999999,0.44999999 0 0 1 0.45,0.45"
     style="color:#000000;fill:#bebebe;fill-opacity:1;fill-rule:nonzero;stroke:none;stroke-width:0.266666;stroke-linecap:round;stroke-linejoin:round;stroke-miterlimit:7;paint-order:stroke markers fill"
     id="path1011-7-1-59-3" />
  <path
     d="m 4.6017348,1.6726036 a 0.44999999,0.44999999 0 0 1 -0.45,0.45 0.44999999,0.44999999 0 0 1 -0.45,-0.45 0.44999999,0.44999999 0 0 1 0.45,-0.45 0.44999999,0.44999999 0 0 1 0.45,0.45"
     style="color:#000000;fill:#bebebe;fill-opacity:1;fill-rule:nonzero;stroke:none;stroke-width:0.266666;stroke-linecap:round;stroke-linejoin:round;stroke-miterlimit:7;paint-order:stroke markers fill"
     id="path1011-7-1-59-8" />
  <path
     d="m 4.6017348,14.613698 a 0.44999999,0.44999999 0 0 1 -0.45,0.45 0.44999999,0.44999999 0 0 1 -0.45,-0.45 0.44999999,0.44999999 0 0 1 0.45,-0.45 0.44999999,0.44999999 0 0 1 0.45,0.45"
     style="color:#000000;fill:#bebebe;fill-opacity:1;fill-rule:nonzero;stroke:none;stroke-width:0.266666;stroke-linecap:round;stroke-linejoin:round;stroke-miterlimit:7;paint-order:stroke markers fill"
     id="path1011-7-1-59-83" />
  <path
     d="m 1.2523864,8.0576839 a 0.45000002,0.45000002 0 0 1 -0.45,0.4500001 0.45000002,0.45000002 0 0 1 -0.45000001,-0.4500001 0.45000002,0.45000002 0 0 1 0.45000001,-0.45 0.45000002,0.45000002 0 0 1 0.45,0.45"
     style="color:#000000;fill:#bebebe;fill-opacity:1;fill-rule:nonzero;stroke:none;stroke-width:0.266667;stroke-linecap:round;stroke-linejoin:round;stroke-miterlimit:7;paint-order:stroke markers fill"
     id="path1011-7-1-59-1" />
  <path
     d="m 15.646054,8.0576839 a 0.45000002,0.45000002 0 0 1 -0.45,0.4500001 0.45000002,0.45000002 0 0 1 -0.45,-0.4500001 0.45000002,0.45000002 0 0 1 0.45,-0.45 0.45000002,0.45000002 0 0 1 0.45,0.45"
     style="color:#000000;fill:#bebebe;fill-opacity:1;fill-rule:nonzero;stroke:none;stroke-width:0.266667;stroke-linecap:round;stroke-linejoin:round;stroke-miterlimit:7;paint-order:stroke markers fill"
     id="path1011-7-1-59-89" />
</svg>
