<?xml version="1.0" encoding="UTF-8" standalone="no"?>
<svg
   xmlns:dc="http://purl.org/dc/elements/1.1/"
   xmlns:cc="http://creativecommons.org/ns#"
   xmlns:rdf="http://www.w3.org/1999/02/22-rdf-syntax-ns#"
   xmlns:svg="http://www.w3.org/2000/svg"
   xmlns="http://www.w3.org/2000/svg"
   xmlns:sodipodi="http://sodipodi.sourceforge.net/DTD/sodipodi-0.dtd"
   xmlns:inkscape="http://www.inkscape.org/namespaces/inkscape"
   inkscape:version="1.0rc1 (09960d6f05, 2020-04-09)"
   sodipodi:docname="diffraction-symbolic.svg"
   id="svg2854"
   version="1.1"
   height="16"
   width="16">
  <metadata
     id="metadata2860">
    <rdf:RDF>
      <cc:Work
         rdf:about="">
        <dc:format>image/svg+xml</dc:format>
        <dc:type
           rdf:resource="http://purl.org/dc/dcmitype/StillImage" />
        <dc:title></dc:title>
      </cc:Work>
    </rdf:RDF>
  </metadata>
  <defs
     id="defs2858" />
  <sodipodi:namedview
     inkscape:current-layer="g2852"
     inkscape:window-maximized="1"
     inkscape:window-y="27"
     inkscape:window-x="0"
     inkscape:cy="8"
     inkscape:cx="-1.5222724"
     inkscape:zoom="7.73"
     showgrid="false"
     id="namedview2856"
     inkscape:window-height="1016"
     inkscape:window-width="1920"
     inkscape:pageshadow="2"
     inkscape:pageopacity="0"
     guidetolerance="10"
     gridtolerance="10"
     objecttolerance="10"
     borderopacity="1"
     bordercolor="#666666"
     pagecolor="#ffffff" />
  <g
     id="g2852"
     fill="#2e3436"
     color="#000">
    <path
       id="path3439"
       d="m 11.5,10.5 c 0.554,0 1,0.446 1,1 0,0.554 -0.446,1 -1,1 -0.554,0 -1,-0.446 -1,-1 0,-0.554 0.446,-1 1,-1 z"
       style="opacity:0.75;marker:none"
       inkscape:connector-curvature="0" />
    <path
       id="path3437"
       d="m 8,10.5 c 0.554,0 1,0.446 1,1 0,0.554 -0.446,1 -1,1 -0.554,0 -1,-0.446 -1,-1 0,-0.554 0.446,-1 1,-1 z"
       style="marker:none"
       inkscape:connector-curvature="0" />
    <path
       id="path3435"
       d="m 4.5,10.5 c 0.554,0 1,0.446 1,1 0,0.554 -0.446,1 -1,1 -0.554,0 -1,-0.446 -1,-1 0,-0.554 0.446,-1 1,-1 z"
       style="opacity:0.5;marker:none"
       inkscape:connector-curvature="0" />
    <path
       id="path3433"
       d="m 11.5,7 c 0.554,0 1,0.446 1,1 0,0.554 -0.446,1 -1,1 -0.554,0 -1,-0.446 -1,-1 0,-0.554 0.446,-1 1,-1 z"
       style="marker:none"
       inkscape:connector-curvature="0" />
    <path
       inkscape:connector-curvature="0"
       id="path3431"
       d="m 8.0000001,6.3511057 c 0.8930339,0 1.6119745,0.7189407 1.6119745,1.6119747 0,0.893034 -0.7189406,1.6119747 -1.6119745,1.6119747 -0.893034,0 -1.6119747,-0.7189407 -1.6119747,-1.6119747 0,-0.893034 0.7189407,-1.6119747 1.6119747,-1.6119747 z"
       style="stroke-width:1;marker:none" />
    <path
       id="path3429"
       d="m 4.5,7 c 0.554,0 1,0.446 1,1 0,0.554 -0.446,1 -1,1 -0.554,0 -1,-0.446 -1,-1 0,-0.554 0.446,-1 1,-1 z"
       style="opacity:0.8;marker:none"
       inkscape:connector-curvature="0" />
    <path
       id="path3427"
       d="m 11.5,3.5 c 0.554,0 1,0.446 1,1 0,0.554 -0.446,1 -1,1 -0.554,0 -1,-0.446 -1,-1 0,-0.554 0.446,-1 1,-1 z"
       style="opacity:0.5;marker:none"
       inkscape:connector-curvature="0" />
    <path
       id="path3425"
       d="m 7.9999999,3.5 c 0.554,0 1,0.446 1,1 0,0.554 -0.446,1 -1,1 -0.554,0 -1,-0.446 -1,-1 0,-0.554 0.446,-1 1,-1 z"
       style="opacity:0.5;marker:none"
       inkscape:connector-curvature="0" />
    <path
       id="path2850"
       d="m 4.5000001,3.5 c 0.554,0 1,0.446 1,1 0,0.554 -0.446,1 -1,1 -0.554,0 -1,-0.446 -1,-1 0,-0.554 0.446,-1 1,-1 z"
       style="opacity:0.7;marker:none"
       inkscape:connector-curvature="0" />
    <path
       inkscape:connector-curvature="0"
       style="opacity:0.5;marker:none"
       d="m 11.5,0 c 0.554,0 1,0.446 1,1 0,0.554 -0.446,1 -1,1 -0.554,0 -1,-0.446 -1,-1 0,-0.554 0.446,-1 1,-1 z"
       id="path3427-9" />
    <path
       inkscape:connector-curvature="0"
       style="marker:none"
       d="M 8,0 C 8.554,0 9,0.446 9,1 9,1.554 8.554,2 8,2 7.446,2 7,1.554 7,1 7,0.446 7.446,0 8,0 Z"
       id="path3425-7" />
    <path
       inkscape:connector-curvature="0"
       style="opacity:0.7;marker:none"
       d="m 4.5,0 c 0.554,0 1,0.446 1,1 0,0.554 -0.446,1 -1,1 -0.554,0 -1,-0.446 -1,-1 0,-0.554 0.446,-1 1,-1 z"
       id="path2850-5" />
    <path
       inkscape:connector-curvature="0"
       style="opacity:0.75;marker:none"
       d="m 15,10.5 c 0.554,0 1,0.446 1,1 0,0.554 -0.446,1 -1,1 -0.554,0 -1,-0.446 -1,-1 0,-0.554 0.446,-1 1,-1 z"
       id="path3439-3" />
    <path
       inkscape:connector-curvature="0"
       style="marker:none"
       d="m 15,7 c 0.554,0 1,0.446 1,1 0,0.554 -0.446,1 -1,1 -0.554,0 -1,-0.446 -1,-1 0,-0.554 0.446,-1 1,-1 z"
       id="path3433-8" />
    <path
       inkscape:connector-curvature="0"
       style="opacity:0.5;marker:none"
       d="m 15,3.5 c 0.554,0 1,0.446 1,1 0,0.554 -0.446,1 -1,1 -0.554,0 -1,-0.446 -1,-1 0,-0.554 0.446,-1 1,-1 z"
       id="path3427-8" />
    <path
       inkscape:connector-curvature="0"
       style="opacity:0.5;marker:none"
       d="M 0.99999996,10.5 C 1.554,10.5 2,10.946 2,11.5 c 0,0.554 -0.446,1 -1.00000004,1 C 0.446,12.5 0,12.054 0,11.5 c 0,-0.554 0.446,-1 0.99999996,-1 z"
       id="path3435-1" />
    <path
       inkscape:connector-curvature="0"
       style="opacity:0.8;marker:none"
       d="M 0.99999996,7 C 1.554,7 2,7.446 2,8 2,8.554 1.554,9 0.99999996,9 0.446,9 0,8.554 0,8 0,7.446 0.446,7 0.99999996,7 Z"
       id="path3429-8" />
    <path
       inkscape:connector-curvature="0"
       style="opacity:0.7;marker:none"
       d="M 0.99999996,3.5 C 1.554,3.5 2,3.946 2,4.5 2,5.054 1.554,5.5 0.99999996,5.5 0.446,5.5 0,5.054 0,4.5 0,3.946 0.446,3.5 0.99999996,3.5 Z"
       id="path2850-9" />
    <path
       inkscape:connector-curvature="0"
       style="opacity:0.75;marker:none"
       d="m 11.5,14 c 0.554,0 1,0.446 1,1 0,0.554 -0.446,1 -1,1 -0.554,0 -1,-0.446 -1,-1 0,-0.554 0.446,-1 1,-1 z"
       id="path3439-4" />
    <path
       inkscape:connector-curvature="0"
       style="marker:none"
       d="m 7.9999999,14 c 0.554,0 1,0.446 1,1 0,0.554 -0.446,1 -1,1 -0.554,0 -1,-0.446 -1,-1 0,-0.554 0.446,-1 1,-1 z"
       id="path3437-3" />
    <path
       inkscape:connector-curvature="0"
       style="opacity:1;marker:none"
       d="m 4.5000001,14 c 0.554,0 1,0.446 1,1 0,0.554 -0.446,1 -1,1 -0.554,0 -1,-0.446 -1,-1 0,-0.554 0.446,-1 1,-1 z"
       id="path3435-3" />
  </g>
</svg>
