<?xml version="1.0" encoding="UTF-8" standalone="no"?>
<svg
   xmlns:dc="http://purl.org/dc/elements/1.1/"
   xmlns:cc="http://creativecommons.org/ns#"
   xmlns:rdf="http://www.w3.org/1999/02/22-rdf-syntax-ns#"
   xmlns:svg="http://www.w3.org/2000/svg"
   xmlns="http://www.w3.org/2000/svg"
   xmlns:sodipodi="http://sodipodi.sourceforge.net/DTD/sodipodi-0.dtd"
   xmlns:inkscape="http://www.inkscape.org/namespaces/inkscape"
   inkscape:version="1.0rc1 (09960d6f05, 2020-04-09)"
   sodipodi:docname="periodic.svg"
   viewBox="0 0 47.999999 48"
   height="48"
   width="48"
   id="svg4267"
   version="1.1">
  <metadata
     id="metadata4273">
    <rdf:RDF>
      <cc:Work
         rdf:about="">
        <dc:format>image/svg+xml</dc:format>
        <dc:type
           rdf:resource="http://purl.org/dc/dcmitype/StillImage" />
        <dc:title></dc:title>
      </cc:Work>
    </rdf:RDF>
  </metadata>
  <defs
     id="defs4271" />
  <sodipodi:namedview
     inkscape:guide-bbox="true"
     showguides="true"
     inkscape:current-layer="g4275"
     inkscape:window-maximized="1"
     inkscape:window-y="27"
     inkscape:window-x="0"
     inkscape:cy="24"
     inkscape:cx="24"
     inkscape:zoom="17.1875"
     showgrid="false"
     id="namedview4269"
     inkscape:window-height="1016"
     inkscape:window-width="1920"
     inkscape:pageshadow="2"
     inkscape:pageopacity="0"
     guidetolerance="10"
     gridtolerance="10"
     objecttolerance="10"
     borderopacity="1"
     inkscape:document-rotation="0"
     bordercolor="#666666"
     pagecolor="#ffffff">
    <sodipodi:guide
       id="guide843"
       orientation="1,0"
       position="8.1232491,6.2633053" />
    <sodipodi:guide
       id="guide845"
       orientation="1,0"
       position="41.456582,11.865546" />
  </sodipodi:namedview>
  <g
     transform="translate(-34.801229,-36.992128)"
     id="g4275"
     inkscape:label="Image"
     inkscape:groupmode="layer">
    <g
       transform="matrix(1.2453204,0,0,1.2453204,-12.142935,-14.350656)"
       style="font-style:normal;font-variant:normal;font-weight:bold;font-stretch:normal;font-size:21.3333px;line-height:1.25;font-family:'Encode Sans Compressed';-inkscape-font-specification:'Encode Sans Compressed, Bold';font-variant-ligatures:normal;font-variant-caps:normal;font-variant-numeric:normal;font-variant-east-asian:normal;letter-spacing:0px;word-spacing:0px;fill:#000000;fill-opacity:1;stroke:none;stroke-width:0.803006"
       id="text833"
       aria-label="Co" />
    <g
       transform="matrix(0.87400739,0,0,1,9.679901,0)"
       style="font-style:normal;font-variant:normal;font-weight:normal;font-stretch:normal;font-size:40px;line-height:1.25;font-family:Cantarell;-inkscape-font-specification:Cantarell;letter-spacing:0px;word-spacing:0px;fill:#000000;fill-opacity:1;stroke:none;stroke-width:1.06965"
       id="text849"
       aria-label="-" />
    <g
       transform="matrix(2.4335275,0,0,1,-62.05339,0)"
       style="font-style:normal;font-variant:normal;font-weight:normal;font-stretch:normal;font-size:40px;line-height:1.25;font-family:Cantarell;-inkscape-font-specification:Cantarell;letter-spacing:0px;word-spacing:0px;fill:#000000;fill-opacity:1;stroke:none;stroke-width:0.641035"
       id="text853"
       aria-label="-" />
    <g
       transform="matrix(1.2375337,0,0,1,-10.190273,0)"
       style="font-style:normal;font-variant:normal;font-weight:normal;font-stretch:normal;font-size:40px;line-height:1.25;font-family:Cantarell;-inkscape-font-specification:Cantarell;letter-spacing:0px;word-spacing:0px;fill:#000000;fill-opacity:1;stroke:none;stroke-width:0.898921"
       id="text857"
       aria-label="-" />
    <g
       transform="matrix(0.4803763,0,0,1,39.699778,0)"
       style="font-style:normal;font-variant:normal;font-weight:normal;font-stretch:normal;font-size:40px;line-height:1.25;font-family:Cantarell;-inkscape-font-specification:Cantarell;letter-spacing:0px;word-spacing:0px;fill:#000000;fill-opacity:1;stroke:none;stroke-width:1.44281"
       id="text849-6"
       aria-label="-" />
    <g
       aria-label="-"
       id="text853-1"
       style="font-style:normal;font-variant:normal;font-weight:normal;font-stretch:normal;font-size:40px;line-height:1.25;font-family:Cantarell;-inkscape-font-specification:Cantarell;letter-spacing:0px;word-spacing:0px;fill:#000000;fill-opacity:1;stroke:none;stroke-width:0.492105"
       transform="matrix(4.1293795,0,0,1,-143.22498,10.812417)" />
    <g
       transform="matrix(1,0,0,1.2554791,-58.446302,2.5133199)"
       style="font-style:normal;font-variant:normal;font-weight:normal;font-stretch:normal;font-size:40px;line-height:1.25;font-family:Cantarell;-inkscape-font-specification:Cantarell;letter-spacing:0px;word-spacing:0px;fill:#000000;fill-opacity:1;stroke:none;stroke-width:0.892473"
       id="text914"
       aria-label="|" />
    <g
       aria-label="-"
       id="text853-5"
       style="font-style:normal;font-variant:normal;font-weight:normal;font-stretch:normal;font-size:40px;line-height:1.25;font-family:Cantarell;-inkscape-font-specification:Cantarell;letter-spacing:0px;word-spacing:0px;fill:#000000;fill-opacity:1;stroke:none;stroke-width:0.634987"
       transform="matrix(2.4801053,0,0,1,-55.700859,-34.440591)" />
    <g
       aria-label="|"
       id="text914-6"
       style="font-style:normal;font-variant:normal;font-weight:normal;font-stretch:normal;font-size:40px;line-height:1.25;font-family:Cantarell;-inkscape-font-specification:Cantarell;letter-spacing:0px;word-spacing:0px;fill:#bebebe;fill-opacity:1;stroke:none;stroke-width:1.07326"
       transform="matrix(1,0,0,0.86813976,-103.2671,27.115978)">
      <path
         d="m 138.1759,63.51707 h 3.08 v -36 h -3.08 z m 16.37749,-49.039348 h 28.76922 v -3.087061 h -28.76922 z m 28.44331,49.03935 h 3.08 V 11.454893 h -3.08 z m -44.8208,3.087059 h 47.9008 V 63.51707 H 138.1759 Z M 173.95255,26.66541 h 5.57236 v -3.08706 h -5.57236 z m -27.78512,33.636755 h 14.35539 v -3.087061 h -14.35539 z m 0.0241,-6.152731 h 28.22892 v -3.08706 h -28.22892 z m 23.19486,-33.703251 h 10.13848 v -3.087061 h -10.13848 z m -4.28619,26.458957 q -3.02861,0 -4.56948,-2.17274 -1.54088,-2.17274 -1.54088,-6.395813 0,-4.253674 1.54088,-6.395813 1.54087,-2.17274 4.56948,-2.17274 3.02862,0 4.56949,2.17274 1.54088,2.142139 1.54088,6.395813 0,4.253675 -1.54088,6.426415 -1.54087,2.142138 -4.56949,2.142138 z m 0,-3.243808 q 0.69074,0 1.16894,-0.244817 0.4782,-0.244815 0.77044,-0.856855 0.29223,-0.612039 0.3985,-1.621905 0.13283,-1.040467 0.13283,-2.601168 0,-1.560701 -0.13283,-2.570566 -0.10626,-1.040467 -0.3985,-1.652507 -0.29224,-0.612039 -0.77044,-0.856855 -0.4782,-0.244816 -1.16894,-0.244816 -0.69073,0 -1.16894,0.244816 -0.4782,0.244816 -0.77043,0.856855 -0.26567,0.61204 -0.3985,1.652507 -0.10627,1.009865 -0.10627,2.570566 0,1.530098 0.10627,2.570567 0.13283,1.009865 0.3985,1.621905 0.29223,0.612039 0.77043,0.887456 0.47821,0.244817 1.16894,0.244817 z m -11.05172,3.213207 q -4.09128,0 -6.08379,-2.78478 -1.99251,-2.815382 -1.99251,-8.813369 0,-6.028591 1.99251,-8.81337 2.01907,-2.78478 6.05722,-2.78478 1.67371,0 3.58652,0.459029 v 3.427422 q -0.7173,-0.153009 -1.54087,-0.214213 -0.79701,-0.09181 -1.48774,-0.09181 -1.32834,0 -2.23161,0.367225 -0.90327,0.367223 -1.48774,1.285282 -0.55791,0.918059 -0.82357,2.47876 -0.23911,1.530099 -0.23911,3.917054 0,2.32575 0.26567,3.886451 0.26567,1.530099 0.82357,2.448158 0.55791,0.918059 1.46118,1.315885 0.90327,0.367223 2.17847,0.367223 0.71731,0 1.51431,-0.09181 0.82357,-0.09181 1.56744,-0.275417 v 3.335615 q -0.58447,0.244816 -1.54087,0.397826 -0.92984,0.183612 -2.01908,0.183612 z"
         style="stroke-width:1.07326;fill:#bebebe;fill-opacity:1"
         id="path916-2" />
    </g>
  </g>
</svg>
