<?xml version="1.0" encoding="UTF-8" standalone="no"?>
<svg
   height="16px"
   viewBox="0 0 16 16"
   width="16px"
   version="1.1"
   id="svg7395"
   sodipodi:docname="resol-rings-symbolic.svg"
   inkscape:version="1.2.1 (9c6d41e410, 2022-07-14)"
   xmlns:inkscape="http://www.inkscape.org/namespaces/inkscape"
   xmlns:sodipodi="http://sodipodi.sourceforge.net/DTD/sodipodi-0.dtd"
   xmlns="http://www.w3.org/2000/svg"
   xmlns:svg="http://www.w3.org/2000/svg">
  <defs
     id="defs7399" />
  <sodipodi:namedview
     id="namedview7397"
     pagecolor="#ffffff"
     bordercolor="#000000"
     borderopacity="0.25"
     inkscape:showpageshadow="2"
     inkscape:pageopacity="0.0"
     inkscape:pagecheckerboard="0"
     inkscape:deskcolor="#d1d1d1"
     showgrid="false"
     inkscape:zoom="22.84"
     inkscape:cx="9.0192644"
     inkscape:cy="7.9684764"
     inkscape:window-width="1345"
     inkscape:window-height="991"
     inkscape:window-x="26"
     inkscape:window-y="23"
     inkscape:window-maximized="0"
     inkscape:current-layer="svg7395" />
  <path
     d="M 8,0 C 3.589844,0 0,3.589844 0,8 c 0,4.410156 3.589844,8 8,8 4.410156,0 8,-3.589844 8,-8 C 16,3.589844 12.410156,0 8,0 Z m 0,2 c 3.332031,0 6,2.667969 6,6 0,3.332031 -2.667969,6 -6,6 C 4.667969,14 2,11.332031 2,8 2,4.667969 4.667969,2 8,2 Z"
     fill="#2e3436"
     id="path7393"
     sodipodi:nodetypes="ssssssssss" />
  <path
     style="color:#000000;fill:#2e3436;-inkscape-stroke:none"
     d="M 8,4.890625 C 6.2914378,4.890625 4.890625,6.2914378 4.890625,8 4.890625,9.7085622 6.2914378,11.109375 8,11.109375 9.7085622,11.109375 11.109375,9.7085622 11.109375,8 11.109375,6.2914378 9.7085622,4.890625 8,4.890625 Z m 0,1.5 C 8.8979028,6.390625 9.609375,7.1020972 9.609375,8 9.609375,8.8979028 8.8979028,9.609375 8,9.609375 7.1020972,9.609375 6.390625,8.8979028 6.390625,8 6.390625,7.1020972 7.1020972,6.390625 8,6.390625 Z"
     id="path7453" />
</svg>
