<?xml version="1.0" encoding="UTF-8" standalone="no"?>
<svg
   height="16px"
   viewBox="0 0 16 16"
   width="16px"
   version="1.1"
   id="svg4"
   sodipodi:docname="resol-rings-symbolic.svg"
   inkscape:version="1.2.1 (9c6d41e410, 2022-07-14)"
   xmlns:inkscape="http://www.inkscape.org/namespaces/inkscape"
   xmlns:sodipodi="http://sodipodi.sourceforge.net/DTD/sodipodi-0.dtd"
   xmlns="http://www.w3.org/2000/svg"
   xmlns:svg="http://www.w3.org/2000/svg">
  <defs
     id="defs8" />
  <sodipodi:namedview
     id="namedview6"
     pagecolor="#ffffff"
     bordercolor="#000000"
     borderopacity="0.25"
     inkscape:showpageshadow="2"
     inkscape:pageopacity="0.0"
     inkscape:pagecheckerboard="0"
     inkscape:deskcolor="#d1d1d1"
     showgrid="false"
     inkscape:zoom="32.49"
     inkscape:cx="8.0024623"
     inkscape:cy="8.0024623"
     inkscape:window-width="1345"
     inkscape:window-height="991"
     inkscape:window-x="26"
     inkscape:window-y="23"
     inkscape:window-maximized="0"
     inkscape:current-layer="svg4" />
  <path
     id="path441-6"
     style="color:#000000;fill:#2e3436;-inkscape-stroke:none"
     d="M 8,4.8300781 C 6.2587136,4.8300781 4.8300781,6.2587136 4.8300781,8 4.8300781,9.7412864 6.2587136,11.169922 8,11.169922 9.7412864,11.169922 11.169922,9.7412864 11.169922,8 11.169922,6.2587136 9.7412864,4.8300781 8,4.8300781 Z m 0,1.5 C 8.930627,6.3300781 9.6699219,7.069373 9.6699219,8 9.6699219,8.930627 8.930627,9.6699219 8,9.6699219 7.069373,9.6699219 6.3300781,8.930627 6.3300781,8 6.3300781,7.069373 7.069373,6.3300781 8,6.3300781 Z M 8,2.546875 C 4.9952438,2.546875 2.546875,4.9952438 2.546875,8 c 0,3.004756 2.4483688,5.453125 5.453125,5.453125 3.004756,0 5.453125,-2.448369 5.453125,-5.453125 C 13.453125,4.9952438 11.004756,2.546875 8,2.546875 Z m 0,1.25 c 2.329207,0 4.203125,1.8739183 4.203125,4.203125 0,2.329207 -1.873918,4.203125 -4.203125,4.203125 C 5.6707933,12.203125 3.796875,10.329207 3.796875,8 3.796875,5.6707933 5.6707933,3.796875 8,3.796875 Z m 0,-3.75 C 3.6138199,0.046875 0.046875,3.6138199 0.046875,8 c 0,4.38618 3.5669449,7.953125 7.953125,7.953125 4.38618,0 7.953125,-3.566945 7.953125,-7.953125 C 15.953125,3.6138199 12.38618,0.046875 8,0.046875 Z m 0,1 c 3.845741,0 6.953125,3.1073845 6.953125,6.953125 0,3.845741 -3.107384,6.953125 -6.953125,6.953125 C 4.1542595,14.953125 1.046875,11.845741 1.046875,8 1.046875,4.1542595 4.1542595,1.046875 8,1.046875 Z" />
</svg>
