<?xml version="1.0" encoding="UTF-8" standalone="no"?>
<svg
   xmlns:dc="http://purl.org/dc/elements/1.1/"
   xmlns:cc="http://creativecommons.org/ns#"
   xmlns:rdf="http://www.w3.org/1999/02/22-rdf-syntax-ns#"
   xmlns:svg="http://www.w3.org/2000/svg"
   xmlns="http://www.w3.org/2000/svg"
   xmlns:sodipodi="http://sodipodi.sourceforge.net/DTD/sodipodi-0.dtd"
   xmlns:inkscape="http://www.inkscape.org/namespaces/inkscape"
   width="48"
   height="48"
   viewBox="0 0 12.7 12.7"
   version="1.1"
   id="svg8"
   inkscape:version="1.0rc1 (09960d6f05, 2020-04-09)"
   sodipodi:docname="units-ang-symbolic.svg">
  <defs
     id="defs2" />
  <sodipodi:namedview
     id="base"
     pagecolor="#ffffff"
     bordercolor="#666666"
     borderopacity="1.0"
     inkscape:pageopacity="0.0"
     inkscape:pageshadow="2"
     inkscape:zoom="17.1875"
     inkscape:cx="24"
     inkscape:cy="24.726896"
     inkscape:document-units="mm"
     inkscape:current-layer="layer1"
     showgrid="false"
     units="px"
     inkscape:window-width="1920"
     inkscape:window-height="1016"
     inkscape:window-x="0"
     inkscape:window-y="27"
     inkscape:window-maximized="1"
     inkscape:document-rotation="0"
     showguides="true"
     inkscape:guide-bbox="true">
    <sodipodi:guide
       position="2.1344293,2.7151436"
       orientation="0,-1"
       id="guide4891" />
  </sodipodi:namedview>
  <metadata
     id="metadata5">
    <rdf:RDF>
      <cc:Work
         rdf:about="">
        <dc:format>image/svg+xml</dc:format>
        <dc:type
           rdf:resource="http://purl.org/dc/dcmitype/StillImage" />
        <dc:title />
      </cc:Work>
    </rdf:RDF>
  </metadata>
  <g
     inkscape:label="Layer 1"
     inkscape:groupmode="layer"
     id="layer1"
     transform="translate(0,-284.3)">
    <g
       transform="translate(2.1819757,2.8494664)"
       style="font-weight:500;font-stretch:ultra-condensed;font-size:9.87777px;line-height:1.25;font-family:'Fira Sans Extra Condensed';-inkscape-font-specification:'Fira Sans Extra Condensed, Medium Ultra-Condensed';letter-spacing:0px;word-spacing:0px;stroke-width:0.264583;fill:#bebebe;fill-opacity:1"
       id="text6054"
       aria-label="Å">
      <path
         inkscape:connector-curvature="0"
         id="path6056"
         style="stroke-width:0.264583;fill:#bebebe;fill-opacity:1"
         d="M 5.3681734,291.43539 5.0323292,289.8352 H 3.2740861 l -0.3259665,1.60019 H 1.6936428 l 1.7187321,-6.82554 h 1.5211766 l 1.7088543,6.82554 z M 3.4716415,288.88693 H 4.8446516 L 4.1532076,285.568 Z m 0.7013217,-7.09224 q 0.5037663,0 0.8000994,0.31609 0.2963331,0.30621 0.2963331,0.83961 0,0.5334 -0.2963331,0.84949 -0.2963331,0.31609 -0.8000994,0.31609 -0.5037663,0 -0.8000994,-0.31609 -0.2963331,-0.31609 -0.2963331,-0.84949 0,-0.5334 0.2963331,-0.83961 0.2963331,-0.31609 0.8000994,-0.31609 z m 0,0.61242 q -0.1876777,0 -0.2864554,0.12841 -0.0889,0.11854 -0.0889,0.41487 0,0.29633 0.0889,0.42474 0.098778,0.12841 0.2864554,0.12841 0.1876776,0 0.2864553,-0.12841 0.098778,-0.12841 0.098778,-0.42474 0,-0.29633 -0.098778,-0.41487 -0.098778,-0.12841 -0.2864553,-0.12841 z" />
    </g>
  </g>
</svg>
