<?xml version="1.0" encoding="UTF-8" standalone="no"?>
<svg
   xmlns:dc="http://purl.org/dc/elements/1.1/"
   xmlns:cc="http://creativecommons.org/ns#"
   xmlns:rdf="http://www.w3.org/1999/02/22-rdf-syntax-ns#"
   xmlns:svg="http://www.w3.org/2000/svg"
   xmlns="http://www.w3.org/2000/svg"
   xmlns:sodipodi="http://sodipodi.sourceforge.net/DTD/sodipodi-0.dtd"
   xmlns:inkscape="http://www.inkscape.org/namespaces/inkscape"
   width="48"
   height="48"
   viewBox="0 0 12.7 12.7"
   version="1.1"
   id="svg8"
   inkscape:version="1.0rc1 (09960d6f05, 2020-04-09)"
   sodipodi:docname="units-um-symbolic.svg">
  <defs
     id="defs2" />
  <sodipodi:namedview
     inkscape:guide-bbox="true"
     showguides="true"
     id="base"
     pagecolor="#ffffff"
     bordercolor="#666666"
     borderopacity="1.0"
     inkscape:pageopacity="0.0"
     inkscape:pageshadow="2"
     inkscape:zoom="17.1875"
     inkscape:cx="24"
     inkscape:cy="24"
     inkscape:document-units="mm"
     inkscape:current-layer="layer1"
     showgrid="false"
     units="px"
     inkscape:window-width="1920"
     inkscape:window-height="1016"
     inkscape:window-x="0"
     inkscape:window-y="27"
     inkscape:window-maximized="1"
     inkscape:document-rotation="0">
    <sodipodi:guide
       id="guide4844"
       orientation="0,-1"
       position="3.2025802,2.7046806" />
  </sodipodi:namedview>
  <metadata
     id="metadata5">
    <rdf:RDF>
      <cc:Work
         rdf:about="">
        <dc:format>image/svg+xml</dc:format>
        <dc:type
           rdf:resource="http://purl.org/dc/dcmitype/StillImage" />
        <dc:title />
      </cc:Work>
    </rdf:RDF>
  </metadata>
  <g
     inkscape:label="Layer 1"
     inkscape:groupmode="layer"
     id="layer1"
     transform="translate(0,-284.3)">
    <g
       transform="translate(2e-7,0.9919794)"
       style="font-weight:500;font-stretch:ultra-condensed;font-size:9.87777px;line-height:1.25;font-family:'Fira Sans Extra Condensed';-inkscape-font-specification:'Fira Sans Extra Condensed, Medium Ultra-Condensed';letter-spacing:0px;word-spacing:0px;fill:#bebebe;fill-opacity:1;stroke-width:0.264583"
       id="text6081"
       aria-label="µm">
      <path
         inkscape:connector-curvature="0"
         id="path6083"
         style="fill:#bebebe;fill-opacity:1;stroke-width:0.264583"
         d="m 3.7422764,293.44163 q -0.079022,-0.21731 -0.1185332,-0.38523 -0.029633,-0.1778 -0.079022,-0.50377 -0.1777999,0.38524 -0.4148664,0.6223 -0.2370665,0.22719 -0.5333996,0.22719 -0.2173109,0 -0.385233,-0.10865 -0.1580443,-0.10866 -0.3062109,-0.3556 0.1580443,0.32596 0.2271887,0.63217 0.069144,0.30622 0.069144,0.79023 v 0.95814 l -1.1458214,0.11853 V 288.078 h 1.2149658 v 3.70417 q 0,0.68156 0.4346219,0.68156 0.4444997,0 0.730955,-0.75071 V 288.078 h 1.2149658 v 3.43747 q 0,0.95814 0.1975554,1.78787 z" />
      <path
         inkscape:connector-curvature="0"
         id="path6085"
         style="fill:#bebebe;fill-opacity:1;stroke-width:0.264583"
         d="m 10.488778,287.93972 q 0.523522,0 0.839611,0.40498 0.316088,0.40499 0.316088,1.08656 v 3.87208 h -1.19521 v -3.74367 q 0,-0.37536 -0.09878,-0.5334 -0.09878,-0.16792 -0.286455,-0.16792 -0.3852331,0 -0.7408329,0.73095 v 3.71404 H 8.1378687 v -3.74367 q 0,-0.70132 -0.3753553,-0.70132 -0.4049886,0 -0.7507106,0.73095 v 3.71404 H 5.8165926 V 288.078 h 1.0569215 l 0.079022,0.67169 q 0.5136441,-0.80997 1.2347213,-0.80997 0.3654775,0 0.6321773,0.22718 0.2666998,0.22719 0.4049886,0.64206 0.5235219,-0.86924 1.2643547,-0.86924 z" />
    </g>
  </g>
</svg>
