<?xml version="1.0" encoding="UTF-8" standalone="no"?>
<svg
   xmlns:dc="http://purl.org/dc/elements/1.1/"
   xmlns:cc="http://creativecommons.org/ns#"
   xmlns:rdf="http://www.w3.org/1999/02/22-rdf-syntax-ns#"
   xmlns:svg="http://www.w3.org/2000/svg"
   xmlns="http://www.w3.org/2000/svg"
   xmlns:sodipodi="http://sodipodi.sourceforge.net/DTD/sodipodi-0.dtd"
   xmlns:inkscape="http://www.inkscape.org/namespaces/inkscape"
   width="48"
   height="48"
   viewBox="0 0 12.7 12.7"
   version="1.1"
   id="svg8"
   inkscape:version="1.0rc1 (09960d6f05, 2020-04-09)"
   sodipodi:docname="units-pct-symbolic.svg">
  <defs
     id="defs2" />
  <sodipodi:namedview
     id="base"
     pagecolor="#ffffff"
     bordercolor="#666666"
     borderopacity="1.0"
     inkscape:pageopacity="0.0"
     inkscape:pageshadow="2"
     inkscape:zoom="17.1875"
     inkscape:cx="24"
     inkscape:cy="24.445324"
     inkscape:document-units="mm"
     inkscape:current-layer="layer1"
     showgrid="false"
     units="px"
     inkscape:window-width="1920"
     inkscape:window-height="1016"
     inkscape:window-x="0"
     inkscape:window-y="27"
     inkscape:window-maximized="1"
     inkscape:document-rotation="0"
     showguides="true"
     inkscape:guide-bbox="true">
    <sodipodi:guide
       position="9.8885813,2.6980914"
       orientation="0,-1"
       id="guide4875" />
  </sodipodi:namedview>
  <metadata
     id="metadata5">
    <rdf:RDF>
      <cc:Work
         rdf:about="">
        <dc:format>image/svg+xml</dc:format>
        <dc:type
           rdf:resource="http://purl.org/dc/dcmitype/StillImage" />
        <dc:title />
      </cc:Work>
    </rdf:RDF>
  </metadata>
  <g
     inkscape:label="Layer 1"
     inkscape:groupmode="layer"
     id="layer1"
     transform="translate(0,-284.3)">
    <g
       style="font-style:normal;font-variant:normal;font-weight:600;font-stretch:ultra-condensed;font-size:9.87778px;line-height:1.25;font-family:'Fira Sans Extra Condensed';-inkscape-font-specification:'Fira Sans Extra Condensed, Semi-Bold Ultra-Condensed';font-variant-ligatures:normal;font-variant-caps:normal;font-variant-numeric:normal;font-variant-east-asian:normal;letter-spacing:0px;word-spacing:0px;stroke-width:0.264583;fill:#bebebe;fill-opacity:1"
       id="text5980"
       aria-label="%">
      <path
         id="path5982"
         style="font-style:normal;font-variant:normal;font-weight:600;font-stretch:ultra-condensed;font-size:9.87778px;font-family:'Fira Sans Extra Condensed';-inkscape-font-specification:'Fira Sans Extra Condensed, Semi-Bold Ultra-Condensed';font-variant-ligatures:normal;font-variant-caps:normal;font-variant-numeric:normal;font-variant-east-asian:normal;stroke-width:0.264583;fill:#bebebe;fill-opacity:1"
         d="m 7.8366065,286.92609 0.8099779,0.46425 -3.7733119,6.98359 -0.809978,-0.46425 z m -3.3090563,0.29633 q 0.6420557,0 1.0470447,0.45438 0.404989,0.45437 0.404989,1.28411 0,0.83961 -0.404989,1.29399 -0.404989,0.45437 -1.0470447,0.45437 -0.6321779,0 -1.0371669,-0.45437 -0.404989,-0.45438 -0.404989,-1.28411 0,-0.82974 0.404989,-1.28412 0.404989,-0.46425 1.0371669,-0.46425 z m 0,0.8001 q -0.2765778,0 -0.3951112,0.23707 -0.1086556,0.22718 -0.1086556,0.7112 0,0.47413 0.1086556,0.7112 0.1185334,0.22718 0.3951112,0.22718 0.2864556,0 0.3951112,-0.22718 0.1185334,-0.23707 0.1185334,-0.72108 0,-0.47414 -0.1185334,-0.70132 -0.1086556,-0.23707 -0.3951112,-0.23707 z m 3.635023,2.65712 q 0.6420557,0 1.0470447,0.45438 0.404989,0.45438 0.404989,1.29399 0,0.83961 -0.404989,1.29399 -0.404989,0.4445 -1.0470447,0.4445 -0.6321779,0 -1.0470446,-0.45438 -0.404989,-0.45438 -0.404989,-1.28411 0,-0.83961 0.404989,-1.29399 0.4148667,-0.45438 1.0470446,-0.45438 z m 0,0.8001 q -0.2864556,0 -0.404989,0.22719 -0.1086555,0.22719 -0.1086555,0.72108 0,0.47413 0.1086555,0.7112 0.1185334,0.22719 0.404989,0.22719 0.2864556,0 0.3951112,-0.22719 0.1086556,-0.22719 0.1086556,-0.7112 0,-0.49389 -0.1086556,-0.72108 -0.1086556,-0.22719 -0.3951112,-0.22719 z" />
    </g>
  </g>
</svg>
