<?xml version="1.0" encoding="UTF-8" standalone="no"?>
<svg
   xmlns:dc="http://purl.org/dc/elements/1.1/"
   xmlns:cc="http://creativecommons.org/ns#"
   xmlns:rdf="http://www.w3.org/1999/02/22-rdf-syntax-ns#"
   xmlns:svg="http://www.w3.org/2000/svg"
   xmlns="http://www.w3.org/2000/svg"
   xmlns:sodipodi="http://sodipodi.sourceforge.net/DTD/sodipodi-0.dtd"
   xmlns:inkscape="http://www.inkscape.org/namespaces/inkscape"
   width="48"
   height="48"
   viewBox="0 0 12.7 12.7"
   version="1.1"
   id="svg8"
   inkscape:version="1.0rc1 (09960d6f05, 2020-04-09)"
   sodipodi:docname="units-mm-symbolic.svg">
  <defs
     id="defs2" />
  <sodipodi:namedview
     id="base"
     pagecolor="#ffffff"
     bordercolor="#666666"
     borderopacity="1.0"
     inkscape:pageopacity="0.0"
     inkscape:pageshadow="2"
     inkscape:zoom="17.1875"
     inkscape:cx="33.32084"
     inkscape:cy="24"
     inkscape:document-units="mm"
     inkscape:current-layer="layer1"
     showgrid="false"
     units="px"
     inkscape:window-width="1920"
     inkscape:window-height="1016"
     inkscape:window-x="0"
     inkscape:window-y="27"
     inkscape:window-maximized="1"
     inkscape:document-rotation="0"
     showguides="true"
     inkscape:guide-bbox="true">
    <sodipodi:guide
       position="6.4581296,2.6893975"
       orientation="0,-1"
       id="guide4855" />
  </sodipodi:namedview>
  <metadata
     id="metadata5">
    <rdf:RDF>
      <cc:Work
         rdf:about="">
        <dc:format>image/svg+xml</dc:format>
        <dc:type
           rdf:resource="http://purl.org/dc/dcmitype/StillImage" />
        <dc:title />
      </cc:Work>
    </rdf:RDF>
  </metadata>
  <g
     inkscape:label="Layer 1"
     inkscape:groupmode="layer"
     id="layer1"
     transform="translate(0,-284.3)">
    <g
       style="font-weight:500;font-stretch:ultra-condensed;font-size:9.49933px;line-height:1.25;font-family:'Fira Sans Extra Condensed';-inkscape-font-specification:'Fira Sans Extra Condensed, Medium Ultra-Condensed';letter-spacing:0px;word-spacing:0px;stroke-width:0.264583;fill:#bebebe;fill-opacity:1"
       id="text6090"
       transform="matrix(0.96168709,0,0,1.0398393,0.04067307,0)"
       aria-label="mm">
      <path
         inkscape:connector-curvature="0"
         id="path6092"
         style="stroke-width:0.264583;fill:#bebebe;fill-opacity:1"
         d="m 4.9268067,277.8884 q 0.5034645,0 0.807443,0.38948 0.3039785,0.38947 0.3039785,1.04492 v 3.72374 H 4.8888094 v -3.60025 q 0,-0.36097 -0.094993,-0.51296 -0.094993,-0.16149 -0.2754806,-0.16149 -0.3704738,0 -0.7124497,0.70295 v 3.57175 H 2.6659663 v -3.60025 q 0,-0.67445 -0.3609746,-0.67445 -0.3894725,0 -0.721949,0.70295 v 3.57175 H 0.4336238 v -5.02515 h 1.0164283 l 0.075995,0.64596 q 0.4939651,-0.77895 1.1874162,-0.77895 0.3514752,0 0.6079571,0.21849 0.2564819,0.21848 0.3894725,0.61745 0.5034645,-0.83594 1.2159138,-0.83594 z" />
      <path
         inkscape:connector-curvature="0"
         id="path6094"
         style="stroke-width:0.264583;fill:#bebebe;fill-opacity:1"
         d="m 11.576327,277.8884 q 0.503464,0 0.807443,0.38948 0.303978,0.38947 0.303978,1.04492 v 3.72374 h -1.149419 v -3.60025 q 0,-0.36097 -0.09499,-0.51296 -0.09499,-0.16149 -0.275481,-0.16149 -0.370473,0 -0.712449,0.70295 v 3.57175 H 9.3154862 v -3.60025 q 0,-0.67445 -0.3609746,-0.67445 -0.3894725,0 -0.721949,0.70295 v 3.57175 H 7.0831437 v -5.02515 H 8.099572 l 0.075995,0.64596 q 0.4939652,-0.77895 1.1874162,-0.77895 0.3514752,0 0.6079571,0.21849 0.2564817,0.21848 0.3894717,0.61745 0.503465,-0.83594 1.215915,-0.83594 z" />
    </g>
  </g>
</svg>
