<?xml version="1.0" encoding="UTF-8" standalone="no"?>
<svg
   xmlns:dc="http://purl.org/dc/elements/1.1/"
   xmlns:cc="http://creativecommons.org/ns#"
   xmlns:rdf="http://www.w3.org/1999/02/22-rdf-syntax-ns#"
   xmlns:svg="http://www.w3.org/2000/svg"
   xmlns="http://www.w3.org/2000/svg"
   xmlns:sodipodi="http://sodipodi.sourceforge.net/DTD/sodipodi-0.dtd"
   xmlns:inkscape="http://www.inkscape.org/namespaces/inkscape"
   width="48"
   height="48"
   viewBox="0 0 12.7 12.7"
   version="1.1"
   id="svg8"
   inkscape:version="1.0rc1 (09960d6f05, 2020-04-09)"
   sodipodi:docname="units-lpm-symbolic.svg">
  <defs
     id="defs2" />
  <sodipodi:namedview
     id="base"
     pagecolor="#ffffff"
     bordercolor="#666666"
     borderopacity="1.0"
     inkscape:pageopacity="0.0"
     inkscape:pageshadow="2"
     inkscape:zoom="17.1875"
     inkscape:cx="24"
     inkscape:cy="24"
     inkscape:document-units="mm"
     inkscape:current-layer="layer1"
     showgrid="false"
     units="px"
     inkscape:window-width="1920"
     inkscape:window-height="1016"
     inkscape:window-x="0"
     inkscape:window-y="27"
     inkscape:window-maximized="1"
     inkscape:document-rotation="0"
     showguides="true"
     inkscape:guide-bbox="true">
    <sodipodi:guide
       position="6.4581296,2.6893975"
       orientation="0,-1"
       id="guide4855" />
  </sodipodi:namedview>
  <metadata
     id="metadata5">
    <rdf:RDF>
      <cc:Work
         rdf:about="">
        <dc:format>image/svg+xml</dc:format>
        <dc:type
           rdf:resource="http://purl.org/dc/dcmitype/StillImage" />
        <dc:title></dc:title>
      </cc:Work>
    </rdf:RDF>
  </metadata>
  <g
     inkscape:label="Layer 1"
     inkscape:groupmode="layer"
     id="layer1"
     transform="translate(0,-284.3)">
    <g
       style="font-weight:500;font-stretch:ultra-condensed;font-size:9.28353px;line-height:1.25;font-family:'Fira Sans Extra Condensed';-inkscape-font-specification:'Fira Sans Extra Condensed, Medium Ultra-Condensed';letter-spacing:0px;word-spacing:0px;fill:#bebebe;fill-opacity:1;stroke-width:0.264583"
       id="text6117"
       transform="matrix(0.93984016,0,0,1.0640107,-2.254529e-8,0.1743461)"
       aria-label="lpm">
      <path
         inkscape:connector-curvature="0"
         id="path6119"
         style="fill:#bebebe;fill-opacity:1;stroke-width:0.264583"
         d="m 1.6319682,276.58032 q -0.5013107,0 -0.79838364,-0.30635 -0.28778944,-0.31564 -0.28778944,-0.83552 v -5.87648 l 1.14187418,-0.12068 v 5.95074 q 0,0.12069 0.055701,0.19496 0.055701,0.0743 0.1671036,0.0743 0.064985,0 0.1206859,-0.0186 0.064985,-0.0186 0.083552,-0.0186 l 0.2228048,0.77982 q -0.3156401,0.17638 -0.7055483,0.17638 z" />
      <path
         inkscape:connector-curvature="0"
         id="path6121"
         style="fill:#bebebe;fill-opacity:1;stroke-width:0.264583"
         d="m 5.1689805,271.40011 q 0.7241154,0 1.0954566,0.66842 0.3713412,0.65913 0.3713412,1.90312 0,1.20686 -0.4270424,1.91241 -0.4177588,0.69626 -1.1697248,0.69626 -0.5941459,0 -0.9933377,-0.52916 v 2.27447 l -1.1418742,0.12997 v -6.92552 H 3.915704 l 0.046418,0.59415 q 0.2413718,-0.37134 0.5384448,-0.54773 0.2970729,-0.17639 0.6684137,-0.17639 z m -0.4363259,4.30756 q 0.3527742,0 0.5384448,-0.39919 Q 5.45677,274.9 5.45677,273.98094 q 0,-0.96549 -0.15782,-1.34612 -0.1578201,-0.38062 -0.4920271,-0.38062 -0.4270424,0 -0.7612495,0.61271 v 2.37659 q 0.2970729,0.46417 0.6869812,0.46417 z" />
      <path
         inkscape:connector-curvature="0"
         id="path6123"
         style="fill:#bebebe;fill-opacity:1;stroke-width:0.264583"
         d="m 11.880968,271.40011 q 0.492027,0 0.7891,0.38063 0.297073,0.38062 0.297073,1.02119 v 3.63914 h -1.123307 v -3.51846 q 0,-0.35277 -0.09283,-0.50131 -0.09284,-0.15782 -0.269223,-0.15782 -0.362057,0 -0.696265,0.68698 v 3.49061 H 9.6714879 v -3.51846 q 0,-0.65913 -0.3527742,-0.65913 -0.3806247,0 -0.7055483,0.68698 v 3.49061 H 7.4898582 v -4.91099 H 8.483196 l 0.074268,0.63128 q 0.4827436,-0.76125 1.1604413,-0.76125 0.3434907,0 0.5941457,0.21352 0.250656,0.21353 0.380625,0.60343 0.492027,-0.81695 1.188292,-0.81695 z" />
    </g>
  </g>
</svg>
