<?xml version="1.0" encoding="UTF-8" standalone="no"?>
<svg
   xmlns:dc="http://purl.org/dc/elements/1.1/"
   xmlns:cc="http://creativecommons.org/ns#"
   xmlns:rdf="http://www.w3.org/1999/02/22-rdf-syntax-ns#"
   xmlns:svg="http://www.w3.org/2000/svg"
   xmlns="http://www.w3.org/2000/svg"
   xmlns:sodipodi="http://sodipodi.sourceforge.net/DTD/sodipodi-0.dtd"
   xmlns:inkscape="http://www.inkscape.org/namespaces/inkscape"
   width="48"
   height="48"
   viewBox="0 0 12.7 12.7"
   version="1.1"
   id="svg8"
   inkscape:version="1.0rc1 (09960d6f05, 2020-04-09)"
   sodipodi:docname="units-ms-symbolic.svg">
  <defs
     id="defs2" />
  <sodipodi:namedview
     id="base"
     pagecolor="#ffffff"
     bordercolor="#666666"
     borderopacity="1.0"
     inkscape:pageopacity="0.0"
     inkscape:pageshadow="2"
     inkscape:zoom="17.1875"
     inkscape:cx="24"
     inkscape:cy="24"
     inkscape:document-units="mm"
     inkscape:current-layer="layer1"
     showgrid="false"
     units="px"
     inkscape:window-width="1920"
     inkscape:window-height="1016"
     inkscape:window-x="0"
     inkscape:window-y="27"
     inkscape:window-maximized="1"
     inkscape:document-rotation="0"
     showguides="true"
     inkscape:guide-bbox="true">
    <sodipodi:guide
       position="-2.657896,2.6967562"
       orientation="0,-1"
       id="guide4926" />
  </sodipodi:namedview>
  <metadata
     id="metadata5">
    <rdf:RDF>
      <cc:Work
         rdf:about="">
        <dc:format>image/svg+xml</dc:format>
        <dc:type
           rdf:resource="http://purl.org/dc/dcmitype/StillImage" />
        <dc:title />
      </cc:Work>
    </rdf:RDF>
  </metadata>
  <g
     inkscape:label="Layer 1"
     inkscape:groupmode="layer"
     id="layer1"
     transform="translate(0,-284.3)">
    <g
       transform="translate(0,1.0455238)"
       style="font-weight:500;font-stretch:ultra-condensed;font-size:9.87777px;line-height:1.25;font-family:'Fira Sans Extra Condensed';-inkscape-font-specification:'Fira Sans Extra Condensed, Medium Ultra-Condensed';letter-spacing:0px;word-spacing:0px;fill:#bebebe;fill-opacity:1;stroke-width:0.264583"
       id="text6034"
       aria-label="ms">
      <path
         inkscape:connector-curvature="0"
         id="path6036"
         style="fill:#bebebe;fill-opacity:1;stroke-width:0.264583"
         d="m 5.9795894,287.89409 q 0.5235218,0 0.8396105,0.40499 0.3160886,0.40499 0.3160886,1.08655 v 3.87209 H 5.9400783 v -3.74367 q 0,-0.37536 -0.098778,-0.5334 -0.098778,-0.16793 -0.2864553,-0.16793 -0.3852331,0 -0.7408328,0.73096 v 3.71404 H 3.62868 v -3.74367 q 0,-0.70133 -0.3753553,-0.70133 -0.4049885,0 -0.7507105,0.73096 v 3.71404 H 1.307404 v -5.22534 h 1.0569214 l 0.079022,0.67169 q 0.513644,-0.80998 1.2347213,-0.80998 0.3654775,0 0.6321773,0.22719 0.2666998,0.22719 0.4049886,0.64206 0.5235218,-0.86925 1.2643548,-0.86925 z" />
      <path
         inkscape:connector-curvature="0"
         id="path6038"
         style="fill:#bebebe;fill-opacity:1;stroke-width:0.264583"
         d="m 9.673864,287.89409 q 0.92851,0 1.570565,0.61242 l -0.464255,0.66181 q -0.276577,-0.19755 -0.523522,-0.29633 -0.246944,-0.0988 -0.5037659,-0.0988 -0.2864553,0 -0.4543774,0.15805 -0.1580443,0.14816 -0.1580443,0.41486 0,0.2667 0.1777998,0.43463 0.1876777,0.15804 0.7408328,0.37535 0.681566,0.2667 1.007533,0.63218 0.325966,0.36548 0.325966,0.9779 0,0.76059 -0.5334,1.20509 -0.533399,0.43462 -1.3532541,0.43462 -0.5333996,0 -0.9877771,-0.18768 -0.4444996,-0.19756 -0.7803438,-0.54328 L 8.3304872,292.023 q 0.5531551,0.48401 1.1260658,0.48401 0.3259665,0 0.5136441,-0.16792 0.1876779,-0.1778 0.1876779,-0.48401 0,-0.22719 -0.07902,-0.36548 -0.079023,-0.14817 -0.276578,-0.2667 -0.1975554,-0.12841 -0.5926662,-0.27658 -0.6815662,-0.2667 -0.9778993,-0.6223 -0.2864553,-0.3556 -0.2864553,-0.90875 0,-0.66181 0.4642552,-1.08656 0.4741329,-0.43462 1.2643546,-0.43462 z" />
    </g>
  </g>
</svg>
