<?xml version="1.0" encoding="UTF-8" standalone="no"?>
<svg
   xmlns:dc="http://purl.org/dc/elements/1.1/"
   xmlns:cc="http://creativecommons.org/ns#"
   xmlns:rdf="http://www.w3.org/1999/02/22-rdf-syntax-ns#"
   xmlns:svg="http://www.w3.org/2000/svg"
   xmlns="http://www.w3.org/2000/svg"
   xmlns:sodipodi="http://sodipodi.sourceforge.net/DTD/sodipodi-0.dtd"
   xmlns:inkscape="http://www.inkscape.org/namespaces/inkscape"
   sodipodi:docname="units-ma-symbolic.svg"
   inkscape:version="1.0rc1 (09960d6f05, 2020-04-09)"
   id="svg8"
   version="1.1"
   viewBox="0 0 12.7 12.7"
   height="48"
   width="48">
  <defs
     id="defs2" />
  <sodipodi:namedview
     inkscape:guide-bbox="true"
     showguides="true"
     inkscape:document-rotation="0"
     inkscape:window-maximized="1"
     inkscape:window-y="27"
     inkscape:window-x="0"
     inkscape:window-height="1016"
     inkscape:window-width="1920"
     units="px"
     showgrid="false"
     inkscape:current-layer="layer1"
     inkscape:document-units="mm"
     inkscape:cy="24"
     inkscape:cx="33.32084"
     inkscape:zoom="17.1875"
     inkscape:pageshadow="2"
     inkscape:pageopacity="0.0"
     borderopacity="1.0"
     bordercolor="#666666"
     pagecolor="#ffffff"
     id="base">
    <sodipodi:guide
       id="guide4855"
       orientation="0,-1"
       position="6.4581296,2.6893975" />
  </sodipodi:namedview>
  <metadata
     id="metadata5">
    <rdf:RDF>
      <cc:Work
         rdf:about="">
        <dc:format>image/svg+xml</dc:format>
        <dc:type
           rdf:resource="http://purl.org/dc/dcmitype/StillImage" />
        <dc:title />
      </cc:Work>
    </rdf:RDF>
  </metadata>
  <g
     transform="translate(0,-284.3)"
     id="layer1"
     inkscape:groupmode="layer"
     inkscape:label="Layer 1">
    <g
       style="font-weight:500;font-stretch:ultra-condensed;font-size:9.87777px;line-height:1.25;font-family:'Fira Sans Extra Condensed';-inkscape-font-specification:'Fira Sans Extra Condensed, Medium Ultra-Condensed';letter-spacing:0px;word-spacing:0px;fill:#bebebe;fill-opacity:1;stroke-width:0.264583"
       id="text836"
       aria-label="mA">
      <path
         id="path838"
         style="fill:#bebebe;fill-opacity:1;stroke-width:0.264583"
         d="m 5.3819843,288.94271 q 0.5235218,0 0.8396105,0.40498 0.3160886,0.40499 0.3160886,1.08656 v 3.87209 H 5.3424732 v -3.74368 q 0,-0.37535 -0.098778,-0.5334 -0.098778,-0.16792 -0.2864554,-0.16792 -0.385233,0 -0.7408327,0.73095 v 3.71405 H 3.0310749 v -3.74368 q 0,-0.70132 -0.3753553,-0.70132 -0.4049886,0 -0.7507105,0.73095 v 3.71405 H 0.70979886 v -5.22535 H 1.7667203 l 0.079022,0.67169 q 0.513644,-0.80997 1.2347213,-0.80997 0.3654775,0 0.6321773,0.22718 0.2666998,0.22719 0.4049886,0.64206 0.5235218,-0.86924 1.2643546,-0.86924 z" />
      <path
         id="path840"
         style="fill:#bebebe;fill-opacity:1;stroke-width:0.264583"
         d="m 10.715969,294.30634 -0.335844,-1.6002 H 8.6218814 l -0.3259664,1.6002 H 7.0414382 l 1.718732,-6.82554 h 1.5211768 l 1.708854,6.82554 z m -1.8965322,-2.54847 h 1.3730102 l -0.691444,-3.31893 z" />
    </g>
  </g>
</svg>
