<?xml version="1.0" encoding="UTF-8" standalone="no"?>
<svg
   xmlns:dc="http://purl.org/dc/elements/1.1/"
   xmlns:cc="http://creativecommons.org/ns#"
   xmlns:rdf="http://www.w3.org/1999/02/22-rdf-syntax-ns#"
   xmlns:svg="http://www.w3.org/2000/svg"
   xmlns="http://www.w3.org/2000/svg"
   xmlns:sodipodi="http://sodipodi.sourceforge.net/DTD/sodipodi-0.dtd"
   xmlns:inkscape="http://www.inkscape.org/namespaces/inkscape"
   width="48"
   height="48"
   viewBox="0 0 12.7 12.7"
   version="1.1"
   id="svg8"
   inkscape:version="1.0rc1 (09960d6f05, 2020-04-09)"
   sodipodi:docname="units-kev-symbolic.svg">
  <defs
     id="defs2" />
  <sodipodi:namedview
     id="base"
     pagecolor="#ffffff"
     bordercolor="#666666"
     borderopacity="1.0"
     inkscape:pageopacity="0.0"
     inkscape:pageshadow="2"
     inkscape:zoom="17.1875"
     inkscape:cx="30.088445"
     inkscape:cy="24"
     inkscape:document-units="mm"
     inkscape:current-layer="text5038"
     showgrid="false"
     units="px"
     inkscape:window-width="1920"
     inkscape:window-height="1016"
     inkscape:window-x="0"
     inkscape:window-y="27"
     inkscape:window-maximized="1"
     inkscape:document-rotation="0"
     showguides="true"
     inkscape:guide-bbox="true">
    <sodipodi:guide
       position="2.7496635,2.6948724"
       orientation="0,-1"
       id="guide4904" />
  </sodipodi:namedview>
  <metadata
     id="metadata5">
    <rdf:RDF>
      <cc:Work
         rdf:about="">
        <dc:format>image/svg+xml</dc:format>
        <dc:type
           rdf:resource="http://purl.org/dc/dcmitype/StillImage" />
        <dc:title />
      </cc:Work>
    </rdf:RDF>
  </metadata>
  <g
     inkscape:label="Layer 1"
     inkscape:groupmode="layer"
     id="layer1"
     transform="translate(0,-284.3)">
    <g
       aria-label="KeV"
       transform="scale(0.87504644,1.1427965)"
       style="font-style:normal;font-variant:normal;font-weight:600;font-stretch:normal;font-size:7.98143625px;line-height:1.25;font-family:'Encode Sans Compressed';-inkscape-font-specification:'Encode Sans Compressed, Semi-Bold';font-variant-ligatures:normal;font-variant-caps:normal;font-variant-numeric:normal;font-feature-settings:normal;text-align:start;letter-spacing:0px;word-spacing:0px;writing-mode:lr-tb;text-anchor:start;fill:#000000;fill-opacity:1;stroke:none;stroke-width:0.16611773"
       id="text5038">
      <g
         style="font-weight:500;font-stretch:ultra-condensed;font-size:9.15778px;line-height:1.25;font-family:'Fira Sans Extra Condensed';-inkscape-font-specification:'Fira Sans Extra Condensed, Medium Ultra-Condensed';letter-spacing:0px;word-spacing:0px;fill:#bebebe;fill-opacity:1;stroke-width:0.043952"
         id="text6061"
         transform="matrix(1.0594982,0,0,0.94384301,0.01245663,0)"
         aria-label="keV">
        <path
           inkscape:connector-curvature="0"
           id="path6063"
           style="fill:#bebebe;fill-opacity:1;stroke-width:0.043952"
           d="m 1.8694022,265.94098 v 6.90497 H 0.74299528 v -6.78592 z m 2.4451272,2.0605 -1.2820892,2.14292 1.3919825,2.70155 H 3.2155958 l -1.3004047,-2.6466 1.3004047,-2.19787 z" />
        <path
           inkscape:connector-curvature="0"
           id="path6065"
           style="fill:#bebebe;fill-opacity:1;stroke-width:0.043952"
           d="m 8.2431944,270.30924 q 0,0.0824 -0.027473,0.46705 H 5.7156472 q 0.036631,0.75094 0.2564178,1.05314 0.2289445,0.29305 0.6410446,0.29305 0.2838911,0 0.5128356,-0.0916 0.2289445,-0.10073 0.4945201,-0.31136 l 0.4670468,0.64104 q -0.6410446,0.62273 -1.538507,0.62273 -0.9524091,0 -1.4652447,-0.65936 -0.5036779,-0.65936 -0.5036779,-1.85903 0,-1.19966 0.4853623,-1.89566 0.4853623,-0.69599 1.373667,-0.69599 0.8516735,0 1.327878,0.62273 0.4762046,0.61357 0.4762046,1.81324 z m -1.0989336,-0.32968 q 0,-0.68683 -0.16484,-0.9982 -0.1648401,-0.32052 -0.5311513,-0.32052 -0.3388378,0 -0.5219934,0.31137 -0.1739978,0.3022 -0.2106289,1.07146 h 1.4286136 z" />
        <path
           inkscape:connector-curvature="0"
           id="path6067"
           style="fill:#bebebe;fill-opacity:1;stroke-width:0.043952"
           d="m 12.931971,266.51792 -1.465245,6.32803 h -1.456087 l -1.520191,-6.32803 h 1.1813535 l 1.0806185,5.30236 1.034829,-5.30236 z" />
      </g>
    </g>
  </g>
</svg>
