<?xml version="1.0" encoding="UTF-8" standalone="no"?>
<svg
   height="16px"
   viewBox="0 0 16 16"
   width="16px"
   version="1.1"
   id="svg8"
   sodipodi:docname="view-full-symbolic.svg"
   inkscape:version="1.2.1 (9c6d41e410, 2022-07-14)"
   xmlns:inkscape="http://www.inkscape.org/namespaces/inkscape"
   xmlns:sodipodi="http://sodipodi.sourceforge.net/DTD/sodipodi-0.dtd"
   xmlns="http://www.w3.org/2000/svg"
   xmlns:svg="http://www.w3.org/2000/svg">
  <defs
     id="defs12" />
  <sodipodi:namedview
     id="namedview10"
     pagecolor="#ffffff"
     bordercolor="#000000"
     borderopacity="0.25"
     inkscape:showpageshadow="2"
     inkscape:pageopacity="0.0"
     inkscape:pagecheckerboard="0"
     inkscape:deskcolor="#d1d1d1"
     showgrid="false"
     inkscape:zoom="30.14"
     inkscape:cx="7.7637691"
     inkscape:cy="7.9960186"
     inkscape:window-width="1920"
     inkscape:window-height="1011"
     inkscape:window-x="0"
     inkscape:window-y="0"
     inkscape:window-maximized="1"
     inkscape:current-layer="svg8" />
  <path
     d="M 1,9 C 0.449219,9 0,9.449219 0,10 v 6 H 6 C 6.550781,16 7,15.550781 7,15 7,14.449219 6.550781,14 6,14 H 3.414062 l 3.292969,-3.292969 c 0.390625,-0.390625 0.390625,-1.023437 0,-1.414062 C 6.519531,9.105469 6.265625,9 6,9 5.734375,9 5.480469,9.105469 5.292969,9.292969 L 2,12.585938 V 10 C 2,9.449219 1.550781,9 1,9 Z m 0,0"
     id="path2"
     style="fill:#2e3436" />
  <path
     d="m 15,7 c 0.550781,0 1,-0.449219 1,-1 V 0 H 10 C 9.449219,0 9,0.449219 9,1 9,1.550781 9.449219,2 10,2 h 2.585938 L 9.292969,5.292969 c -0.390625,0.390625 -0.390625,1.023437 0,1.414062 C 9.480469,6.894531 9.734375,7 10,7 10.265625,7 10.519531,6.894531 10.707031,6.707031 L 14,3.414062 V 6 c 0,0.550781 0.449219,1 1,1 z m 0,0"
     id="path4"
     style="fill:#2e3436" />
  <path
     d="m 15,9 c 0.550781,0 1,0.449219 1,1 v 6 H 10 C 9.449219,16 9,15.550781 9,15 9,14.449219 9.449219,14 10,14 h 2.585938 L 9.292969,10.707031 c -0.390625,-0.390625 -0.390625,-1.023437 0,-1.414062 C 9.480469,9.105469 9.734375,9 10,9 c 0.265625,0 0.519531,0.105469 0.707031,0.292969 L 14,12.585938 V 10 c 0,-0.550781 0.449219,-1 1,-1 z m 0,0"
     id="path2-6"
     style="fill:#2e3436" />
  <path
     d="M 1,7 C 0.449219,7 0,6.550781 0,6 V 0 H 6 C 6.550781,0 7,0.449219 7,1 7,1.550781 6.550781,2 6,2 H 3.414062 l 3.292969,3.292969 c 0.390625,0.390625 0.390625,1.023437 0,1.414062 C 6.519531,6.894531 6.265625,7 6,7 5.734375,7 5.480469,6.894531 5.292969,6.707031 L 2,3.414062 V 6 C 2,6.550781 1.550781,7 1,7 Z m 0,0"
     id="path4-7"
     style="fill:#2e3436" />
</svg>
